<?xml version="1.0" encoding="UTF-8" standalone="no"?>
<!-- Generator: Adobe Illustrator 16.0.4, SVG Export Plug-In . SVG Version: 6.00 Build 0)  -->

<svg
   xmlns:dc="http://purl.org/dc/elements/1.1/"
   xmlns:cc="http://creativecommons.org/ns#"
   xmlns:rdf="http://www.w3.org/1999/02/22-rdf-syntax-ns#"
   xmlns:svg="http://www.w3.org/2000/svg"
   xmlns="http://www.w3.org/2000/svg"
   xmlns:sodipodi="http://sodipodi.sourceforge.net/DTD/sodipodi-0.dtd"
   xmlns:inkscape="http://www.inkscape.org/namespaces/inkscape"
   version="1.1"
   id="Capa_1"
   x="0px"
   y="0px"
   width="24.395px"
   height="23.303px"
   viewBox="0 0 24.395 23.303"
   enable-background="new 0 0 24.395 23.303"
   xml:space="preserve"
   inkscape:version="0.48.4 r9939"
   sodipodi:docname="3-stars.svg"><metadata
     id="metadata15"><rdf:RDF><cc:Work
         rdf:about=""><dc:format>image/svg+xml</dc:format><dc:type
           rdf:resource="http://purl.org/dc/dcmitype/StillImage" /><dc:title></dc:title></cc:Work></rdf:RDF></metadata><defs
     id="defs13" /><sodipodi:namedview
     pagecolor="#ffffff"
     bordercolor="#666666"
     borderopacity="1"
     objecttolerance="10"
     gridtolerance="10"
     guidetolerance="10"
     inkscape:pageopacity="0"
     inkscape:pageshadow="2"
     inkscape:window-width="1600"
     inkscape:window-height="853"
     id="namedview11"
     showgrid="false"
     inkscape:zoom="11.313709"
     inkscape:cx="14.162608"
     inkscape:cy="15.37623"
     inkscape:window-x="-2"
     inkscape:window-y="-3"
     inkscape:window-maximized="1"
     inkscape:current-layer="g3" /><g
     id="g3"><polygon
       transform="translate(6.8211549,-6.5525632)"
       points="2.791,19.457 2.133,23.303 5.586,21.49 9.038,23.303 8.379,19.457 11.174,16.735 7.312,16.174 5.585,12.675 3.86,16.174 0,16.735 "
       id="polygon7-52" /><path
       style="fill:none"
       d="m 9.081489,16.450791 c 0.00176,-0.08438 0.1387844,-0.9128 0.3045068,-1.840925 l 0.3013133,-1.6875 -1.3202472,-1.330331 C 7.2893589,10.506102 7.0898933,10.249429 7.2813053,10.194879 7.4102751,10.158125 8.2371984,10.030387 9.1189126,9.9110186 l 1.6031174,-0.217034 0.854102,-1.698309 0.854102,-1.698309 0.828624,1.70026 0.828625,1.700261 1.589156,0.216897 c 0.874036,0.1192934 1.704284,0.2433414 1.844996,0.2756634 0.215411,0.04948 0.05245,0.25891 -1.03125,1.325328 -0.972633,0.957122 -1.286625,1.344748 -1.285191,1.586577 10e-4,0.176007 0.113544,0.93423 0.25,1.68494 0.136456,0.75071 0.248102,1.461035 0.248102,1.578501 0,0.168702 -0.345706,0.03292 -1.645447,-0.646254 l -1.645447,-0.859828 -1.667053,0.872252 c -0.9168794,0.479739 -1.6656162,0.803211 -1.66386,0.718827 l 0,0 z"
       id="path3229"
       inkscape:connector-curvature="0" /><path
       style="fill:#dfce89;fill-opacity:1"
       d="m 15.263512,16.384791 c -0.266065,-0.145629 -1.020713,-0.543142 -1.676997,-0.883363 l -1.193242,-0.618584 -1.620065,0.851907 C 9.8821726,16.2033 9.1291804,16.562695 9.0998918,16.533406 9.0706033,16.504118 9.173902,15.734964 9.3294444,14.824176 9.4849868,13.913388 9.6115267,13.083287 9.6106442,12.979507 9.6095611,12.852144 9.1748895,12.378941 8.2732613,11.523571 6.7112504,10.041701 6.6085133,10.249335 9.0787095,9.8957403 9.9780609,9.7670032 10.721599,9.6540697 10.731017,9.644777 c 0.0094,-0.00929 0.389918,-0.7771444 0.845556,-1.7063371 l 0.828432,-1.6894413 0.855628,1.71393 c 0.470595,0.9426615 0.88559,1.7150242 0.922211,1.7163617 0.221055,0.00807 3.580076,0.5205877 3.61035,0.5508627 0.02032,0.02032 -0.56596,0.628276 -1.302835,1.351023 l -1.339772,1.314085 0.319695,1.855799 c 0.175833,1.020689 0.310086,1.865409 0.29834,1.877155 -0.01175,0.01174 -0.239045,-0.0978 -0.50511,-0.243424 l 0,0 z"
       id="path3274"
       inkscape:connector-curvature="0" /></g></svg>