<?xml version="1.0" encoding="UTF-8" standalone="no"?>
<!-- Generator: Adobe Illustrator 16.0.4, SVG Export Plug-In . SVG Version: 6.00 Build 0)  -->

<svg
   xmlns:dc="http://purl.org/dc/elements/1.1/"
   xmlns:cc="http://creativecommons.org/ns#"
   xmlns:rdf="http://www.w3.org/1999/02/22-rdf-syntax-ns#"
   xmlns:svg="http://www.w3.org/2000/svg"
   xmlns="http://www.w3.org/2000/svg"
   xmlns:sodipodi="http://sodipodi.sourceforge.net/DTD/sodipodi-0.dtd"
   xmlns:inkscape="http://www.inkscape.org/namespaces/inkscape"
   version="1.1"
   id="Capa_1"
   x="0px"
   y="0px"
   width="24.395px"
   height="23.303px"
   viewBox="0 0 24.395 23.303"
   enable-background="new 0 0 24.395 23.303"
   xml:space="preserve"
   inkscape:version="0.48.4 r9939"
   sodipodi:docname="1-stars.svg"><metadata
     id="metadata15"><rdf:RDF><cc:Work
         rdf:about=""><dc:format>image/svg+xml</dc:format><dc:type
           rdf:resource="http://purl.org/dc/dcmitype/StillImage" /><dc:title></dc:title></cc:Work></rdf:RDF></metadata><defs
     id="defs13" /><sodipodi:namedview
     pagecolor="#ffffff"
     bordercolor="#666666"
     borderopacity="1"
     objecttolerance="10"
     gridtolerance="10"
     guidetolerance="10"
     inkscape:pageopacity="0"
     inkscape:pageshadow="2"
     inkscape:window-width="1600"
     inkscape:window-height="853"
     id="namedview11"
     showgrid="false"
     inkscape:zoom="11.313709"
     inkscape:cx="14.162608"
     inkscape:cy="15.37623"
     inkscape:window-x="-2"
     inkscape:window-y="-3"
     inkscape:window-maximized="1"
     inkscape:current-layer="g3" /><g
     id="g3"><polygon
       transform="translate(6.8211549,-6.5525632)"
       points="2.791,19.457 2.133,23.303 5.586,21.49 9.038,23.303 8.379,19.457 11.174,16.735 7.312,16.174 5.585,12.675 3.86,16.174 0,16.735 "
       id="polygon7-52" /><path
       style="fill:none"
       d="m 9.081489,16.450791 c 0.00176,-0.08438 0.1387844,-0.9128 0.3045068,-1.840925 l 0.3013133,-1.6875 -1.3202472,-1.330331 C 7.2893589,10.506102 7.0898933,10.249429 7.2813053,10.194879 7.4102751,10.158125 8.2371984,10.030387 9.1189126,9.9110186 l 1.6031174,-0.217034 0.854102,-1.698309 0.854102,-1.698309 0.828624,1.70026 0.828625,1.700261 1.589156,0.216897 c 0.874036,0.1192934 1.704284,0.2433414 1.844996,0.2756634 0.215411,0.04948 0.05245,0.25891 -1.03125,1.325328 -0.972633,0.957122 -1.286625,1.344748 -1.285191,1.586577 10e-4,0.176007 0.113544,0.93423 0.25,1.68494 0.136456,0.75071 0.248102,1.461035 0.248102,1.578501 0,0.168702 -0.345706,0.03292 -1.645447,-0.646254 l -1.645447,-0.859828 -1.667053,0.872252 c -0.9168794,0.479739 -1.6656162,0.803211 -1.66386,0.718827 l 0,0 z"
       id="path3229"
       inkscape:connector-curvature="0" /><path
       style="fill:#00ff00;fill-opacity:1"
       d="m 9.0159997,16.563721 c 0.024993,-0.06883 0.1806208,-0.931075 0.3458393,-1.916089 L 9.6622362,12.856697 8.3112124,11.56521 C 7.5681493,10.854892 6.978303,10.255608 7.0004428,10.233468 7.0358864,10.198025 10.401864,9.6855413 10.640269,9.6792904 10.691278,9.677953 11.107617,8.8956345 11.565466,7.940805 L 12.39792,6.2047514 13.212363,7.856427 c 0.447944,0.9084217 0.8271,1.6867036 0.84257,1.7295154 0.01547,0.042812 0.783846,0.1832872 1.707504,0.3121678 0.923658,0.1288808 1.773881,0.2627608 1.889384,0.2975108 0.193486,0.05821 0.103327,0.165684 -1.146149,1.366228 l -1.356154,1.303046 0.3197,1.875224 c 0.175835,1.031374 0.313731,1.881864 0.306437,1.889978 -0.0073,0.0081 -0.768973,-0.384341 -1.692619,-0.872126 l -1.679356,-0.886879 -0.574524,0.307886 c -2.0618103,1.10492 -2.8529534,1.494351 -2.8131563,1.384743 z"
       id="path3496"
       inkscape:connector-curvature="0" /></g></svg>