<?xml version="1.0" encoding="UTF-8" standalone="no"?>
<!-- Generator: Adobe Illustrator 16.0.4, SVG Export Plug-In . SVG Version: 6.00 Build 0)  -->

<svg
   xmlns:dc="http://purl.org/dc/elements/1.1/"
   xmlns:cc="http://creativecommons.org/ns#"
   xmlns:rdf="http://www.w3.org/1999/02/22-rdf-syntax-ns#"
   xmlns:svg="http://www.w3.org/2000/svg"
   xmlns="http://www.w3.org/2000/svg"
   xmlns:sodipodi="http://sodipodi.sourceforge.net/DTD/sodipodi-0.dtd"
   xmlns:inkscape="http://www.inkscape.org/namespaces/inkscape"
   version="1.1"
   id="Capa_1"
   x="0px"
   y="0px"
   width="24.395px"
   height="23.303px"
   viewBox="0 0 24.395 23.303"
   enable-background="new 0 0 24.395 23.303"
   xml:space="preserve"
   inkscape:version="0.48.4 r9939"
   sodipodi:docname="3-stars.svg"><metadata
     id="metadata15"><rdf:RDF><cc:Work
         rdf:about=""><dc:format>image/svg+xml</dc:format><dc:type
           rdf:resource="http://purl.org/dc/dcmitype/StillImage" /><dc:title></dc:title></cc:Work></rdf:RDF></metadata><defs
     id="defs13" /><sodipodi:namedview
     pagecolor="#ffffff"
     bordercolor="#666666"
     borderopacity="1"
     objecttolerance="10"
     gridtolerance="10"
     guidetolerance="10"
     inkscape:pageopacity="0"
     inkscape:pageshadow="2"
     inkscape:window-width="1600"
     inkscape:window-height="853"
     id="namedview11"
     showgrid="false"
     inkscape:zoom="11.313709"
     inkscape:cx="14.162608"
     inkscape:cy="15.37623"
     inkscape:window-x="-2"
     inkscape:window-y="-3"
     inkscape:window-maximized="1"
     inkscape:current-layer="g3" /><g
     id="g3"><polygon
       points="14.992,6.781 17.786,4.058 13.926,3.497 12.198,0 10.472,3.497 6.612,4.058 9.406,6.781 8.746,10.625    12.198,8.811 15.651,10.625  "
       id="polygon5" /><polygon
       points="7.312,16.174 5.585,12.675 3.86,16.174 0,16.735 2.791,19.457 2.133,23.303 5.586,21.49 9.038,23.303    8.379,19.457 11.174,16.735  "
       id="polygon7" /><polygon
       points="24.395,16.735 20.535,16.174 18.808,12.675 17.079,16.174 13.221,16.735 16.015,19.457 15.353,23.303    18.807,21.49 22.261,23.303 21.6,19.457  "
       id="polygon9" /><path
       style="fill:#00ff00;fill-opacity:1"
       d="m 2.2199536,23.013893 c 0.027809,-0.116251 0.1778472,-0.961507 0.3334183,-1.878347 L 2.8362286,19.468564 1.4780338,18.108245 C 0.73102657,17.36007 0.14447232,16.747926 0.17457986,16.747926 c 0.12599583,0 3.73109434,-0.533597 3.73717214,-0.553146 0.00366,-0.01176 0.3793578,-0.777037 0.8348934,-1.700621 l 0.8282464,-1.679244 0.838956,1.679244 c 0.4614258,0.923584 0.8474263,1.688863 0.8577788,1.700621 0.010353,0.01176 0.8481108,0.14135 1.8616847,0.287981 1.0135737,0.146632 1.8576407,0.281382 1.8757037,0.299446 0.01806,0.01806 -0.565287,0.604418 -1.2963366,1.303009 -0.829446,0.792621 -1.3303854,1.33663 -1.3323873,1.446943 -0.00176,0.09723 0.124234,0.922174 0.2799965,1.833214 0.1557625,0.91104 0.2588004,1.680842 0.228972,1.710669 C 8.8594321,23.10587 8.095882,22.745541 7.1924814,22.27531 L 5.549935,21.420346 5.264497,21.591054 c -0.1569909,0.09389 -0.917613,0.499995 -1.6902714,0.902456 -1.2760935,0.664689 -1.4002001,0.712377 -1.354272,0.520383 z"
       id="path3398"
       inkscape:connector-curvature="0" /><path
       style="fill:#00ff00;fill-opacity:1"
       d="m 15.453078,23.09393 c 0,-0.06325 0.140754,-0.910408 0.312787,-1.882578 l 0.312787,-1.767581 -1.387397,-1.347922 c -0.763069,-0.741358 -1.346098,-1.347923 -1.29562,-1.347923 0.05048,0 0.890268,-0.119324 1.866201,-0.265165 0.975934,-0.14584 1.796115,-0.265165 1.822626,-0.265165 0.02651,0 0.412285,-0.75572 0.857276,-1.679378 0.444992,-0.923659 0.834201,-1.679379 0.864909,-1.679379 0.03071,0 0.409079,0.737607 0.840823,1.639126 0.431745,0.901519 0.813037,1.656459 0.847316,1.677645 0.05968,0.03689 3.527288,0.572316 3.706494,0.572316 0.04772,0 -0.531064,0.606565 -1.286186,1.347923 l -1.372948,1.347922 0.316342,1.805606 c 0.173987,0.993084 0.305445,1.833706 0.292125,1.86805 -0.01332,0.03434 -0.771051,-0.332371 -1.683851,-0.814921 l -1.659636,-0.877362 -1.124597,0.589858 c -0.618528,0.324422 -1.373189,0.725774 -1.677024,0.891892 -0.357661,0.195547 -0.552427,0.261489 -0.552427,0.187036 l 0,0 z"
       id="path3400"
       inkscape:connector-curvature="0" /><path
       style="fill:#00ff00;fill-opacity:1"
       d="M 8.8588561,10.229286 C 8.8857785,10.095598 9.0330464,9.2580949 9.1861182,8.3681665 L 9.4644303,6.7501151 8.1226321,5.4608635 C 7.3846431,4.7517751 6.8129569,4.1431941 6.8522183,4.1084613 6.8914797,4.0737284 7.7342702,3.9332594 8.7250861,3.7963079 l 1.8014839,-0.2490028 0.827623,-1.7183163 0.827623,-1.71831642 0.849759,1.71486122 0.849759,1.7148611 1.780241,0.2530596 c 0.979132,0.1391827 1.814475,0.2720503 1.856315,0.2952614 0.04184,0.023211 -0.521221,0.6436988 -1.251247,1.3788617 l -1.327321,1.3366599 0.311827,1.7938408 c 0.171505,0.9866126 0.292091,1.8135769 0.267969,1.8376989 -0.02412,0.02412 -0.760537,-0.335641 -1.636478,-0.7994719 -0.875941,-0.463832 -1.631393,-0.84333 -1.678782,-0.84333 -0.04739,0 -0.802344,0.3778602 -1.677678,0.8396893 -0.875333,0.4618296 -1.6195856,0.8396896 -1.6538942,0.8396896 -0.034309,0 -0.040352,-0.109381 -0.01343,-0.243068 l 0,0 z"
       id="path3402"
       inkscape:connector-curvature="0" /></g></svg>