<?xml version="1.0" encoding="UTF-8" standalone="no"?>
<!-- Generator: Adobe Illustrator 16.0.4, SVG Export Plug-In . SVG Version: 6.00 Build 0)  -->

<svg
   xmlns:dc="http://purl.org/dc/elements/1.1/"
   xmlns:cc="http://creativecommons.org/ns#"
   xmlns:rdf="http://www.w3.org/1999/02/22-rdf-syntax-ns#"
   xmlns:svg="http://www.w3.org/2000/svg"
   xmlns="http://www.w3.org/2000/svg"
   xmlns:sodipodi="http://sodipodi.sourceforge.net/DTD/sodipodi-0.dtd"
   xmlns:inkscape="http://www.inkscape.org/namespaces/inkscape"
   version="1.1"
   id="Capa_1"
   x="0px"
   y="0px"
   width="24.395px"
   height="23.303px"
   viewBox="0 0 24.395 23.303"
   enable-background="new 0 0 24.395 23.303"
   xml:space="preserve"
   inkscape:version="0.48.4 r9939"
   sodipodi:docname="5-stars.svg"><metadata
     id="metadata15"><rdf:RDF><cc:Work
         rdf:about=""><dc:format>image/svg+xml</dc:format><dc:type
           rdf:resource="http://purl.org/dc/dcmitype/StillImage" /><dc:title></dc:title></cc:Work></rdf:RDF></metadata><defs
     id="defs13" /><sodipodi:namedview
     pagecolor="#ffffff"
     bordercolor="#666666"
     borderopacity="1"
     objecttolerance="10"
     gridtolerance="10"
     guidetolerance="10"
     inkscape:pageopacity="0"
     inkscape:pageshadow="2"
     inkscape:window-width="1600"
     inkscape:window-height="853"
     id="namedview11"
     showgrid="false"
     inkscape:zoom="11.313709"
     inkscape:cx="14.162608"
     inkscape:cy="15.37623"
     inkscape:window-x="-2"
     inkscape:window-y="-3"
     inkscape:window-maximized="1"
     inkscape:current-layer="g3" /><g
     id="g3"><polygon
       transform="translate(12.821155,-12.552563)"
       points="8.379,19.457 11.174,16.735 7.312,16.174 5.585,12.675 3.86,16.174 0,16.735 2.791,19.457 2.133,23.303 5.586,21.49 9.038,23.303 "
       id="polygon7-5" /><polygon
       transform="translate(12.821155,-0.55256311)"
       points="2.791,19.457 2.133,23.303 5.586,21.49 9.038,23.303 8.379,19.457 11.174,16.735 7.312,16.174 5.585,12.675 3.86,16.174 0,16.735 "
       id="polygon7-9" /><polygon
       transform="translate(0.82115484,5.4474369)"
       points="5.585,12.675 3.86,16.174 0,16.735 2.791,19.457 2.133,23.303 5.586,21.49 9.038,23.303 8.379,19.457 11.174,16.735 7.312,16.174 "
       id="polygon7-4" /><polygon
       transform="translate(0.82115484,-6.5525632)"
       points="5.585,12.675 3.86,16.174 0,16.735 2.791,19.457 2.133,23.303 5.586,21.49 9.038,23.303 8.379,19.457 11.174,16.735 7.312,16.174 "
       id="polygon7-52" /><polygon
       transform="translate(0.82115484,-18.552564)"
       points="2.133,23.303 5.586,21.49 9.038,23.303 8.379,19.457 11.174,16.735 7.312,16.174 5.585,12.675 3.86,16.174 0,16.735 2.791,19.457 "
       id="polygon7-2" /><path
       style="fill:none"
       d="m 3.081489,16.450791 c 0.00176,-0.08438 0.1387844,-0.9128 0.3045068,-1.840925 l 0.3013133,-1.6875 -1.3202472,-1.330331 C 1.2893589,10.506102 1.0898933,10.249429 1.2813053,10.194879 1.4102751,10.158125 2.2371984,10.030387 3.1189126,9.9110186 l 1.6031169,-0.217034 0.8541023,-1.698309 0.8541021,-1.698309 0.8286245,1.70026 0.8286245,1.700261 1.5891563,0.216897 c 0.8740358,0.1192934 1.7042838,0.2433414 1.8449958,0.2756634 0.215411,0.04948 0.05245,0.25891 -1.03125,1.325328 -0.9726328,0.957122 -1.2866255,1.344748 -1.285191,1.586577 0.00105,0.176007 0.113544,0.93423 0.25,1.68494 0.136456,0.75071 0.2481017,1.461035 0.2481017,1.578501 0,0.168702 -0.3457053,0.03292 -1.6454468,-0.646254 L 6.412402,14.859712 4.7453489,15.731964 C 3.8284696,16.211703 3.0797328,16.535175 3.081489,16.450791 l 0,0 z"
       id="path3229"
       inkscape:connector-curvature="0" /><path
       style="fill:#00ff00;fill-opacity:1"
       d="m 3.078804,28.437285 c 5.19e-5,-0.08507 0.1193762,-0.844653 0.265165,-1.687953 0.1457889,-0.843301 0.2650708,-1.624148 0.2650708,-1.735216 0,-0.1441 -0.3793336,-0.570459 -1.3243595,-1.488536 -0.9956453,-0.967254 -1.28633078,-1.297129 -1.1711455,-1.329039 0.084268,-0.02334 0.9347964,-0.153512 1.8900638,-0.289262 l 1.73685,-0.246817 0.8216752,-1.713576 0.8216752,-1.713576 0.8582417,1.714766 0.8582417,1.714765 1.7097574,0.244198 c 0.9403662,0.134309 1.7889832,0.267205 1.8858152,0.295323 0.146565,0.04256 -0.05231,0.269051 -1.187089,1.351943 l -1.3631491,1.300818 0.3170016,1.846324 c 0.1743507,1.015477 0.3039837,1.859762 0.2880738,1.876187 -0.015911,0.01643 -0.7778385,-0.358481 -1.6931738,-0.833125 L 6.3932726,26.88152 4.7687131,27.736743 c -0.8935077,0.470371 -1.6392843,0.855221 -1.6572814,0.855221 -0.017997,0 -0.03268,-0.06961 -0.032628,-0.154679 z"
       id="path3459"
       inkscape:connector-curvature="0" /><path
       style="fill:#00ff00;fill-opacity:1"
       d="M 9.2635119,16.384791 C 8.9974471,16.239162 8.2427987,15.841649 7.5865152,15.501428 L 6.3932726,14.882845 4.7732082,15.734751 C 3.8821728,16.2033 3.1291806,16.562695 3.0998921,16.533406 3.0706035,16.504118 3.1739022,15.734964 3.3294446,14.824176 3.484987,13.913388 3.6115269,13.083287 3.6106444,12.979507 3.6095612,12.852144 3.1748897,12.378941 2.2732615,11.523571 0.71125063,10.041701 0.60851356,10.249335 3.0787097,9.8957404 3.9780611,9.7670033 4.7215994,9.6540698 4.7310171,9.6447771 4.7404347,9.6354844 5.1209348,8.8676327 5.5765727,7.9384401 L 6.4050053,6.2489989 7.260633,7.9629288 c 0.4705952,0.9426614 0.8855903,1.7150242 0.9222112,1.7163616 0.2210543,0.00807 3.5800758,0.5205876 3.6103498,0.5508626 0.02032,0.02032 -0.565959,0.628276 -1.302834,1.351023 l -1.339773,1.314085 0.3196953,1.855799 c 0.1758325,1.020689 0.3100855,1.865409 0.2983396,1.877155 -0.011746,0.01174 -0.2390454,-0.0978 -0.50511,-0.243424 l 0,0 z"
       id="path3461"
       inkscape:connector-curvature="0" /><path
       style="fill:#00ff00;fill-opacity:1"
       d="M 3.3126451,2.9372475 C 3.4755604,2.0014359 3.6088963,1.142612 3.6089472,1.0287499 3.6090147,0.87773094 3.247708,0.47214246 2.2733324,-0.47055785 1.5386935,-1.1813151 0.9719032,-1.7738913 1.0137986,-1.7873938 c 0.041895,-0.013503 0.8851332,-0.1411448 1.8738618,-0.2836494 0.9887287,-0.1425045 1.8095905,-0.2721508 1.8241373,-0.2881031 0.014547,-0.015952 0.4043083,-0.7847243 0.8661369,-1.7083824 l 0.8396882,-1.6793786 0.7913994,1.5931316 c 0.4352698,0.8762224 0.8076512,1.6405138 0.8275142,1.6984255 0.029282,0.085372 3.2586816,0.6417242 3.7249496,0.6417242 0.06035,0 -0.501463,0.6121434 -1.24847,1.36031864 L 9.1548213,0.90701125 9.437678,2.5739934 C 9.5932491,3.4908334 9.7431033,4.3353558 9.7706867,4.4507096 9.8155632,4.6383802 9.6405543,4.5669023 8.1070559,3.7712437 L 6.3932726,2.8820441 4.7239792,3.7603834 C 3.8058678,4.2434708 3.0460795,4.6387231 3.0355606,4.6387231 c -0.010519,0 0.1141693,-0.765664 0.2770845,-1.7014756 z"
       id="path3463"
       inkscape:connector-curvature="0" /><path
       style="fill:#00ff00;fill-opacity:1"
       d="m 15.039216,10.505181 c 0.02574,-0.09098 0.175082,-0.9410174 0.331866,-1.8889824 L 15.656145,6.8926259 14.317747,5.5735942 C 13.581628,4.8481269 12.992026,4.2418853 13.00752,4.226391 c 0.01549,-0.015494 0.85746,-0.1481431 1.871034,-0.2947746 1.013573,-0.1466316 1.850107,-0.2762231 1.858963,-0.2879811 0.0089,-0.011758 0.385592,-0.7857101 0.837193,-1.7198935 l 0.821091,-1.6985153 0.831709,1.6961237 c 0.457441,0.932868 0.842406,1.7068201 0.85548,1.7198935 0.01307,0.013073 0.853057,0.1437411 1.866631,0.2903727 1.013574,0.1466315 1.857412,0.2811533 1.875196,0.2989372 0.01778,0.017784 -0.574199,0.6151157 -1.315518,1.327404 l -1.347854,1.2950696 0.296318,1.8116793 c 0.162975,0.9964235 0.273549,1.8344475 0.245721,1.8622755 -0.02783,0.02783 -0.789624,-0.334077 -1.692882,-0.8042321 L 18.368316,8.8679206 18.081842,9.0392685 c -0.15756,0.094241 -0.917138,0.4998432 -1.687952,0.9013357 -1.066739,0.5556318 -1.390299,0.6904798 -1.354674,0.5645768 l 0,0 z"
       id="path3465"
       inkscape:connector-curvature="0" /><path
       style="fill:#00ff00;fill-opacity:1"
       d="m 15.039968,22.470354 c 0.0262,-0.108986 0.177244,-0.966911 0.335655,-1.906501 l 0.28802,-1.708345 -1.364816,-1.309583 c -1.259634,-1.208658 -1.347787,-1.313552 -1.143846,-1.361077 0.226806,-0.05285 3.316241,-0.497582 3.45659,-0.497582 0.04294,0 0.468204,-0.779482 0.945031,-1.732182 l 0.866959,-1.732182 0.824282,1.719012 0.824281,1.719012 1.69005,0.239333 c 0.929526,0.131633 1.786225,0.262873 1.903773,0.291644 0.194749,0.04767 0.09274,0.167787 -1.149049,1.353 l -1.362772,1.300689 0.317923,1.89008 c 0.174857,1.039544 0.314069,1.896243 0.309358,1.903777 -0.0047,0.0075 -0.762598,-0.384735 -1.684197,-0.871707 l -1.675635,-0.885405 -0.534074,0.271113 c -0.293741,0.149111 -1.06532,0.551 -1.714621,0.893086 -1.044007,0.550037 -1.175038,0.599056 -1.132912,0.423818 z"
       id="path3467"
       inkscape:connector-curvature="0" /></g></svg>