<?xml version="1.0" encoding="UTF-8" standalone="no"?>
<!-- Generator: Adobe Illustrator 16.0.4, SVG Export Plug-In . SVG Version: 6.00 Build 0)  -->

<svg
   xmlns:dc="http://purl.org/dc/elements/1.1/"
   xmlns:cc="http://creativecommons.org/ns#"
   xmlns:rdf="http://www.w3.org/1999/02/22-rdf-syntax-ns#"
   xmlns:svg="http://www.w3.org/2000/svg"
   xmlns="http://www.w3.org/2000/svg"
   xmlns:sodipodi="http://sodipodi.sourceforge.net/DTD/sodipodi-0.dtd"
   xmlns:inkscape="http://www.inkscape.org/namespaces/inkscape"
   version="1.1"
   id="Capa_1"
   x="0px"
   y="0px"
   width="24.395px"
   height="23.303px"
   viewBox="0 0 24.395 23.303"
   enable-background="new 0 0 24.395 23.303"
   xml:space="preserve"
   inkscape:version="0.48.4 r9939"
   sodipodi:docname="5-stars2.svg"><metadata
     id="metadata15"><rdf:RDF><cc:Work
         rdf:about=""><dc:format>image/svg+xml</dc:format><dc:type
           rdf:resource="http://purl.org/dc/dcmitype/StillImage" /><dc:title></dc:title></cc:Work></rdf:RDF></metadata><defs
     id="defs13" /><sodipodi:namedview
     pagecolor="#ffffff"
     bordercolor="#666666"
     borderopacity="1"
     objecttolerance="10"
     gridtolerance="10"
     guidetolerance="10"
     inkscape:pageopacity="0"
     inkscape:pageshadow="2"
     inkscape:window-width="1600"
     inkscape:window-height="853"
     id="namedview11"
     showgrid="false"
     inkscape:zoom="11.313709"
     inkscape:cx="14.162608"
     inkscape:cy="15.37623"
     inkscape:window-x="-2"
     inkscape:window-y="-3"
     inkscape:window-maximized="1"
     inkscape:current-layer="g3" /><g
     id="g3"><polygon
       transform="translate(12.821155,-12.552563)"
       points="8.379,19.457 11.174,16.735 7.312,16.174 5.585,12.675 3.86,16.174 0,16.735 2.791,19.457 2.133,23.303 5.586,21.49 9.038,23.303 "
       id="polygon7-5" /><polygon
       transform="translate(12.821155,-0.55256311)"
       points="2.791,19.457 2.133,23.303 5.586,21.49 9.038,23.303 8.379,19.457 11.174,16.735 7.312,16.174 5.585,12.675 3.86,16.174 0,16.735 "
       id="polygon7-9" /><polygon
       transform="translate(0.82115484,5.4474369)"
       points="5.585,12.675 3.86,16.174 0,16.735 2.791,19.457 2.133,23.303 5.586,21.49 9.038,23.303 8.379,19.457 11.174,16.735 7.312,16.174 "
       id="polygon7-4" /><polygon
       transform="translate(0.82115484,-6.5525632)"
       points="5.585,12.675 3.86,16.174 0,16.735 2.791,19.457 2.133,23.303 5.586,21.49 9.038,23.303 8.379,19.457 11.174,16.735 7.312,16.174 "
       id="polygon7-52" /><polygon
       transform="translate(0.82115484,-18.552564)"
       points="2.133,23.303 5.586,21.49 9.038,23.303 8.379,19.457 11.174,16.735 7.312,16.174 5.585,12.675 3.86,16.174 0,16.735 2.791,19.457 "
       id="polygon7-2" /><path
       style="fill:none"
       d="m 3.081489,16.450791 c 0.00176,-0.08438 0.1387844,-0.9128 0.3045068,-1.840925 l 0.3013133,-1.6875 -1.3202472,-1.330331 C 1.2893589,10.506102 1.0898933,10.249429 1.2813053,10.194879 1.4102751,10.158125 2.2371984,10.030387 3.1189126,9.9110186 l 1.6031169,-0.217034 0.8541023,-1.698309 0.8541021,-1.698309 0.8286245,1.70026 0.8286245,1.700261 1.5891563,0.216897 c 0.8740358,0.1192934 1.7042838,0.2433414 1.8449958,0.2756634 0.215411,0.04948 0.05245,0.25891 -1.03125,1.325328 -0.9726328,0.957122 -1.2866255,1.344748 -1.285191,1.586577 0.00105,0.176007 0.113544,0.93423 0.25,1.68494 0.136456,0.75071 0.2481017,1.461035 0.2481017,1.578501 0,0.168702 -0.3457053,0.03292 -1.6454468,-0.646254 L 6.412402,14.859712 4.7453489,15.731964 C 3.8284696,16.211703 3.0797328,16.535175 3.081489,16.450791 l 0,0 z"
       id="path3229"
       inkscape:connector-curvature="0" /><path
       style="fill:#dfce89;fill-opacity:1"
       d="M 2.9961477,4.6345844 C 3.0132706,4.5869657 3.1653958,3.7212138 3.3342039,2.7106907 L 3.6411276,0.87337628 2.2706581,-0.45627071 0.90018883,-1.7859181 1.1144082,-1.8230554 c 0.1178207,-0.020425 0.9694759,-0.1474243 1.8925672,-0.2822196 0.9230914,-0.1347953 1.6863683,-0.2538884 1.6961709,-0.2646512 0.0098,-0.010763 0.3971248,-0.7787378 0.8607159,-1.7066113 L 6.4067554,-5.76358 7.2578907,-4.0622101 c 0.6818881,1.3630548 0.8791831,1.7075937 0.9921862,1.7326691 0.077578,0.017214 0.8582382,0.1315151 1.7348007,0.2540014 0.8765624,0.1224862 1.6601894,0.243632 1.7413934,0.2692127 0.135502,0.042686 0.03619,0.1553617 -1.207679,1.37024629 L 9.1632701,0.88765508 9.4827594,2.7414363 C 9.6584788,3.7610157 9.7893719,4.6080938 9.7736338,4.6238319 9.7578957,4.6395701 8.9938926,4.2563694 8.0758494,3.7722744 L 6.4066795,2.8921026 4.9614035,3.6497513 C 4.1665018,4.0664582 3.3921273,4.4779976 3.2405714,4.5642826 3.0636151,4.6650288 2.9761551,4.6901844 2.9961477,4.6345844 z"
       id="path3233"
       inkscape:connector-curvature="0" /><path
       style="fill:#dfce89;fill-opacity:1"
       d="m 14.996148,22.634584 c 0.01712,-0.04762 0.169248,-0.913371 0.338056,-1.923894 l 0.306924,-1.837314 -1.37047,-1.329647 -1.370469,-1.329648 0.214219,-0.03714 c 0.117821,-0.02042 0.969476,-0.147424 1.892567,-0.28222 0.923092,-0.134795 1.686369,-0.253888 1.696171,-0.264651 0.0098,-0.01076 0.397125,-0.778738 0.860716,-1.706611 l 0.842893,-1.687043 0.851136,1.70137 c 0.681888,1.363055 0.879183,1.707594 0.992186,1.732669 0.07758,0.01722 0.858238,0.131516 1.734801,0.254002 0.876562,0.122486 1.660189,0.243632 1.741393,0.269213 0.135502,0.04268 0.03619,0.155361 -1.207679,1.370246 l -1.355322,1.323735 0.319489,1.853782 c 0.17572,1.019579 0.306613,1.866657 0.290875,1.882395 -0.01574,0.01574 -0.779741,-0.367462 -1.697785,-0.851557 l -1.66917,-0.880172 -1.445276,0.757649 c -0.794901,0.416707 -1.569276,0.828246 -1.720832,0.914531 -0.176956,0.100746 -0.264416,0.125902 -0.244423,0.0703 z"
       id="path3237"
       inkscape:connector-curvature="0" /><path
       style="fill:#dfce89;fill-opacity:1"
       d="m 15.015384,22.592377 c 0.06633,-0.299134 0.635655,-3.678455 0.626234,-3.717117 -0.0037,-0.01501 -0.615333,-0.617473 -1.359279,-1.338806 C 13.538394,16.81512 12.932091,16.222558 12.935,16.21965 c 0.0029,-0.0029 0.711028,-0.110504 1.573599,-0.2391 1.405896,-0.209597 1.985079,-0.299202 2.154319,-0.333292 0.04902,-0.0099 0.156003,-0.211921 0.894037,-1.688399 0.461098,-0.922451 0.846143,-1.672373 0.855656,-1.666493 0.0095,0.0059 0.335382,0.64406 0.724152,1.41818 0.728557,1.450702 0.88435,1.739534 1.017059,1.88558 l 0.07734,0.08511 1.513651,0.22072 c 1.462007,0.213189 1.981905,0.295686 2.004249,0.31803 0.0058,0.0058 0.0035,0.03374 -0.0053,0.062 -0.01495,0.04837 -0.967628,1.011334 -2.091292,2.113882 l -0.501102,0.491686 0.153973,0.888422 c 0.286481,1.65299 0.468295,2.800356 0.447113,2.821583 -0.015,0.01503 -1.042815,-0.507114 -2.290429,-1.163558 l -1.057136,-0.556223 -0.8436,0.443167 c -0.463981,0.243742 -1.146883,0.604605 -1.517562,0.801918 -0.77335,0.411657 -0.983905,0.519225 -1.016335,0.519225 -0.01269,0 -0.01811,-0.02237 -0.01205,-0.04972 z"
       id="path3243"
       inkscape:connector-curvature="0" /><path
       style="fill:#dfce89;fill-opacity:1"
       d="m 3.0788038,28.437285 c 5.19e-5,-0.08507 0.1193761,-0.844652 0.265165,-1.687953 0.1457889,-0.8433 0.2650708,-1.624147 0.2650708,-1.735216 0,-0.1441 -0.3793336,-0.570458 -1.3243595,-1.488536 -0.9956454,-0.967254 -1.28633083,-1.297129 -1.1711456,-1.329039 0.084268,-0.02334 0.9347964,-0.153512 1.8900639,-0.289262 l 1.73685,-0.246817 0.8216753,-1.713576 0.8216753,-1.713576 0.8582417,1.714766 0.8582417,1.714766 1.7097575,0.244197 c 0.9403661,0.134309 1.7889831,0.267205 1.8858151,0.295323 0.146565,0.04256 -0.05231,0.269051 -1.18709,1.351944 l -1.363148,1.300817 0.3170015,1.846324 c 0.1743508,1.015478 0.3039838,1.859762 0.2880739,1.876187 C 9.7347816,28.59406 8.9728538,28.219153 8.0575185,27.74451 L 6.3932725,26.881521 4.768713,27.736743 c -0.8935077,0.470372 -1.6392844,0.855222 -1.6572815,0.855222 -0.017997,0 -0.03268,-0.06961 -0.032628,-0.15468 z"
       id="path3268"
       inkscape:connector-curvature="0" /><path
       style="fill:#dfce89;fill-opacity:1"
       d="m 15.039216,10.505181 c 0.02574,-0.09098 0.175082,-0.9410175 0.331866,-1.8889826 L 15.656145,6.8926256 14.317747,5.573594 C 13.581628,4.8481265 12.992026,4.241885 13.00752,4.2263906 c 0.0155,-0.015494 0.85746,-0.148143 1.871034,-0.2947746 1.013573,-0.1466316 1.850107,-0.276223 1.858963,-0.2879811 0.0089,-0.011758 0.385593,-0.7857101 0.837193,-1.7198935 l 0.821091,-1.69851541 0.83171,1.69612381 c 0.45744,0.932868 0.842405,1.7068202 0.855479,1.7198935 0.01307,0.013073 0.853057,0.1437411 1.866631,0.2903727 1.013574,0.1466316 1.857413,0.2811534 1.875196,0.2989373 0.01778,0.017784 -0.574199,0.6151157 -1.315518,1.327404 l -1.347854,1.2950697 0.296318,1.8116794 c 0.162975,0.9964235 0.27355,1.8344476 0.245722,1.8622756 -0.02783,0.02783 -0.789625,-0.334077 -1.692883,-0.8042322 L 18.368316,8.8679205 18.081842,9.0392684 c -0.15756,0.094241 -0.917138,0.4998431 -1.687952,0.9013357 -1.066739,0.5556319 -1.390299,0.6904799 -1.354674,0.5645769 l 0,0 z"
       id="path3272"
       inkscape:connector-curvature="0" /><path
       style="fill:#dfce89;fill-opacity:1"
       d="M 9.2635119,16.384791 C 8.9974472,16.239162 8.2427987,15.841649 7.5865152,15.501428 L 6.3932725,14.882844 4.7732081,15.734751 C 3.8821726,16.2033 3.1291804,16.562695 3.0998918,16.533406 3.0706033,16.504118 3.173902,15.734964 3.3294444,14.824176 3.4849868,13.913388 3.6115267,13.083287 3.6106442,12.979507 3.6095611,12.852144 3.1748895,12.378941 2.2732613,11.523571 0.71125037,10.041701 0.60851329,10.249335 3.0787095,9.8957403 3.9780609,9.7670032 4.7215993,9.6540697 4.7310169,9.644777 4.7404345,9.6354843 5.1209346,8.8676326 5.5765726,7.9384399 l 0.8284326,-1.6894413 0.8556277,1.71393 c 0.4705952,0.9426615 0.8855904,1.7150242 0.9222114,1.7163617 0.2210542,0.00807 3.5800757,0.5205877 3.6103497,0.5508627 0.02032,0.02032 -0.56596,0.628276 -1.302835,1.351023 l -1.3397719,1.314085 0.3196952,1.855799 c 0.1758325,1.020689 0.3100856,1.865409 0.2983397,1.877155 -0.011746,0.01174 -0.2390454,-0.0978 -0.5051101,-0.243424 l 0,0 z"
       id="path3274"
       inkscape:connector-curvature="0" /></g></svg>