<?xml version="1.0" encoding="UTF-8" standalone="no"?>
<!-- Generator: Adobe Illustrator 16.0.4, SVG Export Plug-In . SVG Version: 6.00 Build 0)  -->

<svg
   xmlns:dc="http://purl.org/dc/elements/1.1/"
   xmlns:cc="http://creativecommons.org/ns#"
   xmlns:rdf="http://www.w3.org/1999/02/22-rdf-syntax-ns#"
   xmlns:svg="http://www.w3.org/2000/svg"
   xmlns="http://www.w3.org/2000/svg"
   xmlns:sodipodi="http://sodipodi.sourceforge.net/DTD/sodipodi-0.dtd"
   xmlns:inkscape="http://www.inkscape.org/namespaces/inkscape"
   version="1.1"
   id="Capa_1"
   x="0px"
   y="0px"
   width="512px"
   height="512px"
   viewBox="0 0 512 512"
   enable-background="new 0 0 512 512"
   xml:space="preserve"
   inkscape:version="0.48.4 r9939"
   sodipodi:docname="clipboard_2.svg"><metadata
     id="metadata9"><rdf:RDF><cc:Work
         rdf:about=""><dc:format>image/svg+xml</dc:format><dc:type
           rdf:resource="http://purl.org/dc/dcmitype/StillImage" /><dc:title /></cc:Work></rdf:RDF></metadata><defs
     id="defs7" /><sodipodi:namedview
     pagecolor="#ffffff"
     bordercolor="#666666"
     borderopacity="1"
     objecttolerance="10"
     gridtolerance="10"
     guidetolerance="10"
     inkscape:pageopacity="0"
     inkscape:pageshadow="2"
     inkscape:window-width="1600"
     inkscape:window-height="853"
     id="namedview5"
     showgrid="false"
     inkscape:zoom="0.921875"
     inkscape:cx="42.921336"
     inkscape:cy="267.7374"
     inkscape:window-x="-2"
     inkscape:window-y="-3"
     inkscape:window-maximized="1"
     inkscape:current-layer="Capa_1" /><path
     d="m 415.886,64 c 0.039,0.033 0.081,0.075 0.114,0.115 l 0,383.771 c -0.033,0.039 -0.075,0.081 -0.114,0.114 L 96.114,448 C 96.074,447.967 96.033,447.925 96,447.886 L 96,64.114 C 96.033,64.074 96.075,64.033 96.115,64 L 32,64 32,448 c 0,35.2 28.8,64 64,64 l 320,0 c 35.2,0 64,-28.8 64,-64 L 480,64 z M 320,64 320,32 C 320,14.327 305.673,0 288,0 l -64,0 c -17.673,0 -32,14.327 -32,32 l 0,32 -64,0 0,64 256,0 0,-64 z m -32,0 -64,0 0,-32 64,0 z"
     id="path3"
     inkscape:connector-curvature="0"
     sodipodi:nodetypes="cccccccccsssscccssssccccccccccc"
     style="fill:#dfce89;fill-opacity:1" /><flowRoot
     xml:space="preserve"
     id="flowRoot2986"
     style="fill:black;stroke:none;stroke-opacity:1;stroke-width:1px;stroke-linejoin:miter;stroke-linecap:butt;fill-opacity:1;font-family:Sans;font-style:normal;font-weight:normal;font-size:40px;line-height:125%;letter-spacing:0px;word-spacing:0px"><flowRegion
       id="flowRegion2988"><rect
         id="rect2990"
         width="251.66101"
         height="253.83051"
         x="128"
         y="151.86441" /></flowRegion><flowPara
       id="flowPara2992" /></flowRoot><g
     style="font-size:40px;font-style:normal;font-weight:normal;line-height:125%;letter-spacing:0px;word-spacing:0px;fill:#dfce89;fill-opacity:1;stroke:none;font-family:Sans"
     id="text2994"><path
       d="m 348.42882,331.19155 c -1.9e-4,-6.99994 -4.70018,-10.49994 -14.1,-10.5 -2.40017,0.20006 -4.80017,1.00006 -7.2,2.4 l -3.6,2.4 -6,4.2 c -2.20015,1.60005 -5.50015,3.00005 -9.9,4.2 -4.40014,1.00005 -8.90014,1.50005 -13.5,1.5 l -35.4,0 3.9,-3 5.4,-4.5 15.6,-12 c 7.99987,-6.79993 13.69986,-11.59992 17.1,-14.4 2.19986,-1.99992 4.69986,-4.39991 7.5,-7.2 2.99985,-2.99991 6.49985,-6.49991 10.5,-10.5 15.79983,-16.19989 24.49982,-31.79987 26.1,-46.8 -1.8e-4,-44.39981 -32.10015,-66.59979 -96.3,-66.6 -13.60007,2.1e-4 -26.70006,2.80021 -39.3,8.4 -14.60003,6.2002 -24.50002,14.80019 -29.7,25.8 -4.60001,10.20017 -6.90001,18.10016 -6.9,23.7 -1e-5,4.20015 0.69999,8.20015 2.1,12 1.39998,3.80014 3.29998,7.20013 5.7,10.2 2.59998,2.80013 5.49997,5.00013 8.7,6.6 3.39997,1.60012 7.09996,2.40012 11.1,2.4 2.19996,1.2e-4 4.19996,1.2e-4 6,0 1.99995,1.2e-4 3.79995,-0.0999 5.4,-0.3 6.59994,-0.99988 12.09994,-3.39987 16.5,-7.2 4.59993,-3.99987 6.89993,-8.09986 6.9,-12.3 -7e-5,-0.79986 -1.00007,-3.29985 -3,-7.5 -2.00007,-4.19985 -3.00007,-8.29984 -3,-12.3 -7e-5,-6.59983 2.49993,-12.09983 7.5,-16.5 4.39992,-3.79982 8.89992,-5.69982 13.5,-5.7 5.5999,1.8e-4 9.6999,2.50018 12.3,7.5 l 1.2,2.4 0.9,2.1 c 1.59989,4.20017 2.39989,8.50016 2.4,12.9 -1.1e-4,7.20015 -1.6001,15.00014 -4.8,23.4 -5.2001,14.40012 -18.10008,31.4001 -38.7,51 l -10.5,9.9 c -19.60003,18.60006 -31.50002,31.90004 -35.7,39.9 -2.00001,3.80003 -3.20001,6.40003 -3.6,7.8 -2.20001,5.00002 -3.30001,10.40002 -3.3,16.2 -1e-5,9.8 7.79998,14.7 23.4,14.7 l 125.1,0 c 4.19984,0 8.29983,-0.6 12.3,-1.8 1.19983,-0.4 2.19983,-0.7 3,-0.9 0.79983,-0.4 1.39983,-0.9 1.8,-1.5 0.59982,-0.8 1.09982,-1.7 1.5,-2.7 0.39982,-1.2 0.89982,-2.89999 1.5,-5.1 l 8.4,-32.7 c 0.79981,-2.99996 1.19981,-6.19995 1.2,-9.6"
       style="font-size:300px;font-variant:normal;font-weight:900;font-stretch:normal;fill:#dfce89;font-family:Subway;-inkscape-font-specification:Subway Heavy"
       id="path3761" /></g><flowRoot
     xml:space="preserve"
     id="flowRoot2998"
     style="fill:black;stroke:none;stroke-opacity:1;stroke-width:1px;stroke-linejoin:miter;stroke-linecap:butt;fill-opacity:1;font-family:Sans;font-style:normal;font-weight:normal;font-size:40px;line-height:125%;letter-spacing:0px;word-spacing:0px"><flowRegion
       id="flowRegion3000"><rect
         id="rect3002"
         width="32.542374"
         height="110.64407"
         x="143.18645"
         y="256" /></flowRegion><flowPara
       id="flowPara3004" /></flowRoot></svg>