<?xml version="1.0" encoding="UTF-8" standalone="no"?>
<!-- Generator: Adobe Illustrator 16.0.4, SVG Export Plug-In . SVG Version: 6.00 Build 0)  -->

<svg
   xmlns:dc="http://purl.org/dc/elements/1.1/"
   xmlns:cc="http://creativecommons.org/ns#"
   xmlns:rdf="http://www.w3.org/1999/02/22-rdf-syntax-ns#"
   xmlns:svg="http://www.w3.org/2000/svg"
   xmlns="http://www.w3.org/2000/svg"
   xmlns:sodipodi="http://sodipodi.sourceforge.net/DTD/sodipodi-0.dtd"
   xmlns:inkscape="http://www.inkscape.org/namespaces/inkscape"
   version="1.1"
   id="Capa_1"
   x="0px"
   y="0px"
   width="512px"
   height="512px"
   viewBox="0 0 512 512"
   enable-background="new 0 0 512 512"
   xml:space="preserve"
   inkscape:version="0.48.4 r9939"
   sodipodi:docname="clipboard_3.svg"><metadata
     id="metadata9"><rdf:RDF><cc:Work
         rdf:about=""><dc:format>image/svg+xml</dc:format><dc:type
           rdf:resource="http://purl.org/dc/dcmitype/StillImage" /><dc:title /></cc:Work></rdf:RDF></metadata><defs
     id="defs7" /><sodipodi:namedview
     pagecolor="#ffffff"
     bordercolor="#666666"
     borderopacity="1"
     objecttolerance="10"
     gridtolerance="10"
     guidetolerance="10"
     inkscape:pageopacity="0"
     inkscape:pageshadow="2"
     inkscape:window-width="1600"
     inkscape:window-height="853"
     id="namedview5"
     showgrid="false"
     inkscape:zoom="0.921875"
     inkscape:cx="-151.79053"
     inkscape:cy="267.7374"
     inkscape:window-x="-2"
     inkscape:window-y="-3"
     inkscape:window-maximized="1"
     inkscape:current-layer="Capa_1" /><path
     d="m 415.886,64 c 0.039,0.033 0.081,0.075 0.114,0.115 l 0,383.771 c -0.033,0.039 -0.075,0.081 -0.114,0.114 L 96.114,448 C 96.074,447.967 96.033,447.925 96,447.886 L 96,64.114 C 96.033,64.074 96.075,64.033 96.115,64 L 32,64 32,448 c 0,35.2 28.8,64 64,64 l 320,0 c 35.2,0 64,-28.8 64,-64 L 480,64 z M 320,64 320,32 C 320,14.327 305.673,0 288,0 l -64,0 c -17.673,0 -32,14.327 -32,32 l 0,32 -64,0 0,64 256,0 0,-64 z m -32,0 -64,0 0,-32 64,0 z"
     id="path3"
     inkscape:connector-curvature="0"
     sodipodi:nodetypes="cccccccccsssscccssssccccccccccc"
     style="fill:#dfce89;fill-opacity:1" /><flowRoot
     xml:space="preserve"
     id="flowRoot2986"
     style="fill:black;stroke:none;stroke-opacity:1;stroke-width:1px;stroke-linejoin:miter;stroke-linecap:butt;fill-opacity:1;font-family:Sans;font-style:normal;font-weight:normal;font-size:40px;line-height:125%;letter-spacing:0px;word-spacing:0px"><flowRegion
       id="flowRegion2988"><rect
         id="rect2990"
         width="251.66101"
         height="253.83051"
         x="128"
         y="151.86441" /></flowRegion><flowPara
       id="flowPara2992" /></flowRoot><g
     style="font-size:40px;font-style:normal;font-weight:normal;line-height:125%;letter-spacing:0px;word-spacing:0px;fill:#dfce89;fill-opacity:1;stroke:none;font-family:Sans"
     id="text2994"><path
       d="m 346.02882,318.29155 c -3.20018,-23.39991 -17.40017,-38.3999 -42.6,-45 l -5.7,-1.5 c 3.39986,-0.59989 6.49986,-1.69989 9.3,-3.3 19.99983,-8.59988 29.99982,-22.49986 30,-41.7 -1.8e-4,-10.39983 -3.90017,-20.89982 -11.7,-31.5 -4.40016,-5.79981 -10.70015,-10.4998 -18.9,-14.1 -15.00013,-6.39979 -32.50011,-9.59979 -52.5,-9.6 -23.60007,2.1e-4 -42.50005,4.70021 -56.7,14.1 -6.00003,4.00019 -10.90003,9.30019 -14.7,15.9 -3.80002,6.60017 -5.70002,12.90017 -5.7,18.9 -2e-5,10.00015 2.69998,16.60015 8.1,19.8 3.99997,2.60014 11.29996,3.90014 21.9,3.9 l 2.7,0 c 8.39994,1.4e-4 14.09994,-0.69986 17.1,-2.1 5.39993,-2.39986 8.09993,-6.99985 8.1,-13.8 -7e-5,-0.99985 -0.20007,-2.09984 -0.6,-3.3 -0.20007,-1.39984 -0.50007,-3.09984 -0.9,-5.1 l -2.1,-7.8 0,-2.7 c 1.39993,-7.99982 5.99992,-11.99982 13.8,-12 6.59991,0.80018 10.39991,5.90018 11.4,15.3 l 0.3,3.9 0.3,1.8 c 0.1999,0.80016 0.2999,2.90016 0.3,6.3 -10e-5,3.00015 -0.6001,8.20015 -1.8,15.6 -2.40009,15.40013 -14.40008,23.10012 -36,23.1 -5.80005,1.2e-4 -9.90005,1.00012 -12.3,3 -2.40004,1.80011 -3.60004,5.40011 -3.6,10.8 -4e-5,6.0001 3.49995,10.10009 10.5,12.3 3.39994,0.60009 5.19994,0.80009 5.4,0.6 15.19993,9e-5 25.59992,1.60009 31.2,4.8 6.5999,4.00008 10.7999,11.10008 12.6,21.3 l 0.6,3.3 0.3,1.2 0,6 c -1e-4,8.60005 -0.8001,15.80004 -2.4,21.6 l -2.7,6.6 c -4.40009,8.60002 -9.50009,12.90001 -15.3,12.9 -10.20007,1e-5 -16.00007,-4.49998 -17.4,-13.5 l -0.6,-3.9 -0.3,-3.6 -0.6,-3.9 -0.3,-3 c -1.00006,-7.39995 -2.20006,-12.09995 -3.6,-14.1 -1.40006,-1.99994 -5.40005,-3.79994 -12,-5.4 l -7.8,-0.9 c -22.00002,6e-5 -33.00001,7.80005 -33,23.4 -1e-5,12.20003 4.39999,21.80002 13.2,28.8 4.39997,3.60001 11.29997,7.1 20.7,10.5 15.79994,5.39999 31.89993,8.09999 48.3,8.1 5.3999,-10e-6 11.1999,-0.30001 17.4,-0.9 6.39989,-0.40001 13.19988,-1.10001 20.4,-2.1 11.79986,-1.6 22.19985,-5.4 31.2,-11.4 10.39983,-6.99999 17.49982,-15.39998 21.3,-25.2 3.99982,-10.39996 5.99981,-18.59995 6,-24.6 -1.9e-4,-1.19994 -0.10019,-2.39994 -0.3,-3.6 -1.9e-4,-1.39994 -0.10019,-2.79994 -0.3,-4.2"
       style="font-size:300px;font-variant:normal;font-weight:900;font-stretch:normal;fill:#dfce89;font-family:Subway;-inkscape-font-specification:Subway Heavy"
       id="path2993" /></g><flowRoot
     xml:space="preserve"
     id="flowRoot2998"
     style="fill:black;stroke:none;stroke-opacity:1;stroke-width:1px;stroke-linejoin:miter;stroke-linecap:butt;fill-opacity:1;font-family:Sans;font-style:normal;font-weight:normal;font-size:40px;line-height:125%;letter-spacing:0px;word-spacing:0px"><flowRegion
       id="flowRegion3000"><rect
         id="rect3002"
         width="32.542374"
         height="110.64407"
         x="143.18645"
         y="256" /></flowRegion><flowPara
       id="flowPara3004" /></flowRoot></svg>