<?xml version="1.0" encoding="UTF-8" standalone="no"?>
<!-- Generator: Adobe Illustrator 16.0.4, SVG Export Plug-In . SVG Version: 6.00 Build 0)  -->

<svg
   xmlns:dc="http://purl.org/dc/elements/1.1/"
   xmlns:cc="http://creativecommons.org/ns#"
   xmlns:rdf="http://www.w3.org/1999/02/22-rdf-syntax-ns#"
   xmlns:svg="http://www.w3.org/2000/svg"
   xmlns="http://www.w3.org/2000/svg"
   xmlns:sodipodi="http://sodipodi.sourceforge.net/DTD/sodipodi-0.dtd"
   xmlns:inkscape="http://www.inkscape.org/namespaces/inkscape"
   version="1.1"
   id="Capa_1"
   x="0px"
   y="0px"
   width="512px"
   height="512px"
   viewBox="0 0 512 512"
   enable-background="new 0 0 512 512"
   xml:space="preserve"
   inkscape:version="0.48.4 r9939"
   sodipodi:docname="clipboard.svg"><metadata
     id="metadata9"><rdf:RDF><cc:Work
         rdf:about=""><dc:format>image/svg+xml</dc:format><dc:type
           rdf:resource="http://purl.org/dc/dcmitype/StillImage" /></cc:Work></rdf:RDF></metadata><defs
     id="defs7" /><sodipodi:namedview
     pagecolor="#ffffff"
     bordercolor="#666666"
     borderopacity="1"
     objecttolerance="10"
     gridtolerance="10"
     guidetolerance="10"
     inkscape:pageopacity="0"
     inkscape:pageshadow="2"
     inkscape:window-width="1600"
     inkscape:window-height="853"
     id="namedview5"
     showgrid="false"
     inkscape:zoom="0.921875"
     inkscape:cx="237.6332"
     inkscape:cy="267.7374"
     inkscape:window-x="-2"
     inkscape:window-y="-3"
     inkscape:window-maximized="1"
     inkscape:current-layer="Capa_1" /><path
     d="m 415.886,64 c 0.039,0.033 0.081,0.075 0.114,0.115 l 0,383.771 c -0.033,0.039 -0.075,0.081 -0.114,0.114 L 96.114,448 C 96.074,447.967 96.033,447.925 96,447.886 L 96,64.114 C 96.033,64.074 96.075,64.033 96.115,64 L 32,64 32,448 c 0,35.2 28.8,64 64,64 l 320,0 c 35.2,0 64,-28.8 64,-64 L 480,64 z M 320,64 320,32 C 320,14.327 305.673,0 288,0 l -64,0 c -17.673,0 -32,14.327 -32,32 l 0,32 -64,0 0,64 256,0 0,-64 z m -32,0 -64,0 0,-32 64,0 z"
     id="path3"
     inkscape:connector-curvature="0"
     sodipodi:nodetypes="cccccccccsssscccssssccccccccccc" /><flowRoot
     xml:space="preserve"
     id="flowRoot2986"
     style="fill:black;stroke:none;stroke-opacity:1;stroke-width:1px;stroke-linejoin:miter;stroke-linecap:butt;fill-opacity:1;font-family:Sans;font-style:normal;font-weight:normal;font-size:40px;line-height:125%;letter-spacing:0px;word-spacing:0px"><flowRegion
       id="flowRegion2988"><rect
         id="rect2990"
         width="251.66101"
         height="253.83051"
         x="128"
         y="151.86441" /></flowRegion><flowPara
       id="flowPara2992"></flowPara></flowRoot><text
     xml:space="preserve"
     style="font-size:40px;font-style:normal;font-weight:normal;line-height:125%;letter-spacing:0px;word-spacing:0px;fill:#000000;fill-opacity:1;stroke:none;font-family:Sans"
     x="156.2034"
     y="390.37289"
     id="text2994"
     sodipodi:linespacing="125%"><tspan
       sodipodi:role="line"
       id="tspan2996"
       x="156.2034"
       y="390.37289"
       style="font-size:300px">1</tspan></text>
<flowRoot
     xml:space="preserve"
     id="flowRoot2998"
     style="fill:black;stroke:none;stroke-opacity:1;stroke-width:1px;stroke-linejoin:miter;stroke-linecap:butt;fill-opacity:1;font-family:Sans;font-style:normal;font-weight:normal;font-size:40px;line-height:125%;letter-spacing:0px;word-spacing:0px"><flowRegion
       id="flowRegion3000"><rect
         id="rect3002"
         width="32.542374"
         height="110.64407"
         x="143.18645"
         y="256" /></flowRegion><flowPara
       id="flowPara3004"></flowPara></flowRoot></svg>