<?xml version="1.0" encoding="UTF-8" standalone="no"?>
<!-- Generator: Adobe Illustrator 16.0.4, SVG Export Plug-In . SVG Version: 6.00 Build 0)  -->

<svg
   xmlns:dc="http://purl.org/dc/elements/1.1/"
   xmlns:cc="http://creativecommons.org/ns#"
   xmlns:rdf="http://www.w3.org/1999/02/22-rdf-syntax-ns#"
   xmlns:svg="http://www.w3.org/2000/svg"
   xmlns="http://www.w3.org/2000/svg"
   xmlns:sodipodi="http://sodipodi.sourceforge.net/DTD/sodipodi-0.dtd"
   xmlns:inkscape="http://www.inkscape.org/namespaces/inkscape"
   version="1.1"
   id="Capa_1"
   x="0px"
   y="0px"
   width="512px"
   height="512px"
   viewBox="0 0 512 512"
   enable-background="new 0 0 512 512"
   xml:space="preserve"
   inkscape:version="0.48.4 r9939"
   sodipodi:docname="clipboard_4.svg"><metadata
     id="metadata9"><rdf:RDF><cc:Work
         rdf:about=""><dc:format>image/svg+xml</dc:format><dc:type
           rdf:resource="http://purl.org/dc/dcmitype/StillImage" /><dc:title /></cc:Work></rdf:RDF></metadata><defs
     id="defs7" /><sodipodi:namedview
     pagecolor="#ffffff"
     bordercolor="#666666"
     borderopacity="1"
     objecttolerance="10"
     gridtolerance="10"
     guidetolerance="10"
     inkscape:pageopacity="0"
     inkscape:pageshadow="2"
     inkscape:window-width="1600"
     inkscape:window-height="853"
     id="namedview5"
     showgrid="false"
     inkscape:zoom="0.921875"
     inkscape:cx="42.921336"
     inkscape:cy="267.7374"
     inkscape:window-x="-2"
     inkscape:window-y="-3"
     inkscape:window-maximized="1"
     inkscape:current-layer="Capa_1" /><path
     d="m 415.886,64 c 0.039,0.033 0.081,0.075 0.114,0.115 l 0,383.771 c -0.033,0.039 -0.075,0.081 -0.114,0.114 L 96.114,448 C 96.074,447.967 96.033,447.925 96,447.886 L 96,64.114 C 96.033,64.074 96.075,64.033 96.115,64 L 32,64 32,448 c 0,35.2 28.8,64 64,64 l 320,0 c 35.2,0 64,-28.8 64,-64 L 480,64 z M 320,64 320,32 C 320,14.327 305.673,0 288,0 l -64,0 c -17.673,0 -32,14.327 -32,32 l 0,32 -64,0 0,64 256,0 0,-64 z m -32,0 -64,0 0,-32 64,0 z"
     id="path3"
     inkscape:connector-curvature="0"
     sodipodi:nodetypes="cccccccccsssscccssssccccccccccc"
     style="stroke:#dfce89;stroke-opacity:1;fill:#dfce89;fill-opacity:1" /><flowRoot
     xml:space="preserve"
     id="flowRoot2986"
     style="fill:black;stroke:none;stroke-opacity:1;stroke-width:1px;stroke-linejoin:miter;stroke-linecap:butt;fill-opacity:1;font-family:Sans;font-style:normal;font-weight:normal;font-size:40px;line-height:125%;letter-spacing:0px;word-spacing:0px"><flowRegion
       id="flowRegion2988"><rect
         id="rect2990"
         width="251.66101"
         height="253.83051"
         x="128"
         y="151.86441" /></flowRegion><flowPara
       id="flowPara2992" /></flowRoot><g
     style="font-size:40px;font-style:normal;font-weight:normal;line-height:125%;letter-spacing:0px;word-spacing:0px;fill:#dfce89;fill-opacity:1;stroke:none;font-family:Sans"
     id="text2994"><path
       d="m 353.22882,324.89155 c 0.19981,-0.59994 0.29981,-1.79994 0.3,-3.6 -1.9e-4,-6.39993 -3.50019,-10.09993 -10.5,-11.1 l -2.4,-0.3 -20.1,0 -0.3,-110.4 0,-3.9 -0.3,-4.8 c -0.20016,-3.59981 -1.00016,-6.1998 -2.4,-7.8 -1.20016,-1.5998 -4.10015,-3.3998 -8.7,-5.4 -5.60014,-2.59979 -16.60013,-3.59979 -33,-3 l -8.7,0.3 -8.7,0.9 c -5.80009,0.60021 -10.20009,3.0002 -13.2,7.2 -4.40008,7.00019 -8.60008,13.60019 -12.6,19.8 -4.00007,6.20017 -7.80006,12.20017 -11.4,18 l -29.4,45.6 -6.9,12 c -3.00002,5.2001 -5.80002,10.20009 -8.4,15 -2.40001,4.60008 -4.60001,9.00008 -6.6,13.2 -3.20001,6.40007 -4.8,12.40006 -4.8,18 0,4.60005 1.59999,7.60005 4.8,9 2.19999,1.00005 7.89998,2.00005 17.1,3 l 58.2,0.3 -0.6,9.9 c -0.40008,5.20003 -1.50008,8.70003 -3.3,10.5 l -2.4,1.5 c -3.40007,0.60002 -6.30007,1.50002 -8.7,2.7 l -1.2,0.6 c -4.60006,2.20002 -6.90006,5.90001 -6.9,11.1 -6e-5,3.00001 1.09994,5.8 3.3,8.4 2.19993,2.6 5.39993,3.9 9.6,3.9 l 96.6,0 c 8.79982,0 13.19982,-4.2 13.2,-12.6 -1.8e-4,-4.99999 -2.30018,-8.59998 -6.9,-10.8 l -1.8,-0.9 c -1.60017,-0.39998 -3.10017,-0.79998 -4.5,-1.2 -1.20017,-0.39998 -2.40017,-0.79998 -3.6,-1.2 -4.00016,-2.39997 -6.00016,-6.39997 -6,-12 l 0,-11.1 20.4,0 c 4.19981,5e-5 7.39981,-2.09995 9.6,-6.3 l 1.2,-4.5 m -107.1,-12.3 -48.6,0 5.1,-9.6 4.5,-7.2 11.7,-20.1 21.6,-34.2 5.7,-10.2 0,81.3"
       style="font-size:300px;font-variant:normal;font-weight:900;font-stretch:normal;fill:#dfce89;font-family:Subway;-inkscape-font-specification:Subway Heavy"
       id="path2993" /></g><flowRoot
     xml:space="preserve"
     id="flowRoot2998"
     style="fill:black;stroke:none;stroke-opacity:1;stroke-width:1px;stroke-linejoin:miter;stroke-linecap:butt;fill-opacity:1;font-family:Sans;font-style:normal;font-weight:normal;font-size:40px;line-height:125%;letter-spacing:0px;word-spacing:0px"><flowRegion
       id="flowRegion3000"><rect
         id="rect3002"
         width="32.542374"
         height="110.64407"
         x="143.18645"
         y="256" /></flowRegion><flowPara
       id="flowPara3004" /></flowRoot></svg>