<?xml version="1.0" encoding="UTF-8" standalone="no"?>
<!-- Generator: Adobe Illustrator 16.0.4, SVG Export Plug-In . SVG Version: 6.00 Build 0)  -->

<svg
   xmlns:dc="http://purl.org/dc/elements/1.1/"
   xmlns:cc="http://creativecommons.org/ns#"
   xmlns:rdf="http://www.w3.org/1999/02/22-rdf-syntax-ns#"
   xmlns:svg="http://www.w3.org/2000/svg"
   xmlns="http://www.w3.org/2000/svg"
   xmlns:sodipodi="http://sodipodi.sourceforge.net/DTD/sodipodi-0.dtd"
   xmlns:inkscape="http://www.inkscape.org/namespaces/inkscape"
   version="1.1"
   id="Capa_1"
   x="0px"
   y="0px"
   width="512px"
   height="512px"
   viewBox="0 0 512 512"
   enable-background="new 0 0 512 512"
   xml:space="preserve"
   inkscape:version="0.48.4 r9939"
   sodipodi:docname="clipboard_1.svg"><metadata
     id="metadata9"><rdf:RDF><cc:Work
         rdf:about=""><dc:format>image/svg+xml</dc:format><dc:type
           rdf:resource="http://purl.org/dc/dcmitype/StillImage" /><dc:title /></cc:Work></rdf:RDF></metadata><defs
     id="defs7" /><sodipodi:namedview
     pagecolor="#ffffff"
     bordercolor="#666666"
     borderopacity="1"
     objecttolerance="10"
     gridtolerance="10"
     guidetolerance="10"
     inkscape:pageopacity="0"
     inkscape:pageshadow="2"
     inkscape:window-width="1600"
     inkscape:window-height="853"
     id="namedview5"
     showgrid="false"
     inkscape:zoom="0.921875"
     inkscape:cx="42.921336"
     inkscape:cy="267.7374"
     inkscape:window-x="-2"
     inkscape:window-y="-3"
     inkscape:window-maximized="1"
     inkscape:current-layer="Capa_1" /><path
     d="m 415.886,64 c 0.039,0.033 0.081,0.075 0.114,0.115 l 0,383.771 c -0.033,0.039 -0.075,0.081 -0.114,0.114 L 96.114,448 C 96.074,447.967 96.033,447.925 96,447.886 L 96,64.114 C 96.033,64.074 96.075,64.033 96.115,64 L 32,64 32,448 c 0,35.2 28.8,64 64,64 l 320,0 c 35.2,0 64,-28.8 64,-64 L 480,64 z M 320,64 320,32 C 320,14.327 305.673,0 288,0 l -64,0 c -17.673,0 -32,14.327 -32,32 l 0,32 -64,0 0,64 256,0 0,-64 z m -32,0 -64,0 0,-32 64,0 z"
     id="path3"
     inkscape:connector-curvature="0"
     sodipodi:nodetypes="cccccccccsssscccssssccccccccccc"
     style="fill:#dfce89;fill-opacity:1" /><flowRoot
     xml:space="preserve"
     id="flowRoot2986"
     style="fill:black;stroke:none;stroke-opacity:1;stroke-width:1px;stroke-linejoin:miter;stroke-linecap:butt;fill-opacity:1;font-family:Sans;font-style:normal;font-weight:normal;font-size:40px;line-height:125%;letter-spacing:0px;word-spacing:0px"><flowRegion
       id="flowRegion2988"><rect
         id="rect2990"
         width="251.66101"
         height="253.83051"
         x="128"
         y="151.86441" /></flowRegion><flowPara
       id="flowPara2992" /></flowRoot><g
     style="font-size:40px;font-style:normal;font-weight:normal;line-height:125%;letter-spacing:0px;word-spacing:0px;fill:#dfce89;fill-opacity:1;stroke:none;font-family:Sans"
     id="text2994"><path
       d="m 303.92882,385.49155 c 6.79986,0 11.09986,-3.3 12.9,-9.9 0.19986,-0.59999 0.29986,-1.49999 0.3,-2.7 -1.4e-4,-4.39999 -2.40014,-7.99998 -7.2,-10.8 l -1.5,-0.9 c -6.60013,-2.19998 -10.60012,-3.99998 -12,-5.4 -1.40012,-1.59997 -2.10012,-8.09997 -2.1,-19.5 l 0,-142.5 c -1.2e-4,-13.1998 -8.80011,-20.09979 -26.4,-20.7 -2.20009,2.1e-4 -4.90009,0.30021 -8.1,0.9 -1.00008,0.20021 -2.50008,0.60021 -4.5,1.2 -1.80008,0.60021 -4.10008,1.60021 -6.9,3 -9.00006,4.4002 -19.90005,8.1002 -32.7,11.1 l -15.9,3.9 c -11.20001,2.80019 -16.80001,7.70018 -16.8,14.7 -1e-5,3.00017 0.79999,5.70017 2.4,8.1 1.79999,2.20016 3.59999,3.50016 5.4,3.9 1.59998,0.40016 4.49998,0.60016 8.7,0.6 l 3,-0.3 3.3,0 3.3,0.6 c 6.79996,1.20016 10.19996,4.00016 10.2,8.4 l 0,107.7 c -4e-5,6.00004 -1.10004,11.40003 -3.3,16.2 -1.60004,3.40003 -3.30004,5.40002 -5.1,6 -3.00003,0.20002 -5.80003,1.00002 -8.4,2.4 l -1.2,0.6 c -4.80002,2.40002 -7.20002,6.10001 -7.2,11.1 -2e-5,1.00001 0.1,2.20001 0.3,3.6 0.19998,1.4 0.69998,2.8 1.5,4.2 0.99998,1.2 2.39998,2.3 4.2,3.3 1.79997,0.8 4.19997,1.2 7.2,1.2 l 96.6,0"
       style="font-size:300px;font-variant:normal;font-weight:900;font-stretch:normal;fill:#dfce89;font-family:Subway;-inkscape-font-specification:Subway Heavy"
       id="path2993" /></g><flowRoot
     xml:space="preserve"
     id="flowRoot2998"
     style="fill:black;stroke:none;stroke-opacity:1;stroke-width:1px;stroke-linejoin:miter;stroke-linecap:butt;fill-opacity:1;font-family:Sans;font-style:normal;font-weight:normal;font-size:40px;line-height:125%;letter-spacing:0px;word-spacing:0px"><flowRegion
       id="flowRegion3000"><rect
         id="rect3002"
         width="32.542374"
         height="110.64407"
         x="143.18645"
         y="256" /></flowRegion><flowPara
       id="flowPara3004" /></flowRoot></svg>