<?xml version="1.0" encoding="UTF-8" standalone="no"?>
<!-- Generator: Adobe Illustrator 16.0.4, SVG Export Plug-In . SVG Version: 6.00 Build 0)  -->

<svg
   xmlns:dc="http://purl.org/dc/elements/1.1/"
   xmlns:cc="http://creativecommons.org/ns#"
   xmlns:rdf="http://www.w3.org/1999/02/22-rdf-syntax-ns#"
   xmlns:svg="http://www.w3.org/2000/svg"
   xmlns="http://www.w3.org/2000/svg"
   xmlns:sodipodi="http://sodipodi.sourceforge.net/DTD/sodipodi-0.dtd"
   xmlns:inkscape="http://www.inkscape.org/namespaces/inkscape"
   version="1.1"
   id="Capa_1"
   x="0px"
   y="0px"
   width="512px"
   height="512px"
   viewBox="0 0 512 512"
   enable-background="new 0 0 512 512"
   xml:space="preserve"
   inkscape:version="0.48.4 r9939"
   sodipodi:docname="connection.svg"><metadata
     id="metadata9"><rdf:RDF><cc:Work
         rdf:about=""><dc:format>image/svg+xml</dc:format><dc:type
           rdf:resource="http://purl.org/dc/dcmitype/StillImage" /></cc:Work></rdf:RDF></metadata><defs
     id="defs7" /><sodipodi:namedview
     pagecolor="#ffffff"
     bordercolor="#666666"
     borderopacity="1"
     objecttolerance="10"
     gridtolerance="10"
     guidetolerance="10"
     inkscape:pageopacity="0"
     inkscape:pageshadow="2"
     inkscape:window-width="747"
     inkscape:window-height="480"
     id="namedview5"
     showgrid="false"
     inkscape:zoom="0.4609375"
     inkscape:cx="256"
     inkscape:cy="256"
     inkscape:window-x="0"
     inkscape:window-y="0"
     inkscape:window-maximized="0"
     inkscape:current-layer="Capa_1" /><path
     d="M488,384h-8V280c0-30.878-25.121-56-56-56H288v-64h8c13.2,0,24-10.8,24-24V56c0-13.2-10.8-24-24-24h-80  c-13.2,0-24,10.8-24,24v80c0,13.2,10.8,24,24,24h8v64H88c-30.878,0-56,25.122-56,56v104h-8c-13.2,0-24,10.8-24,24v80  c0,13.2,10.8,24,24,24h80c13.2,0,24-10.8,24-24v-80c0-13.2-10.8-24-24-24h-8v-96h128v96h-8c-13.2,0-24,10.8-24,24v80  c0,13.2,10.8,24,24,24h80c13.2,0,24-10.8,24-24v-80c0-13.2-10.8-24-24-24h-8v-96h128v96h-8c-13.2,0-24,10.8-24,24v80  c0,13.2,10.8,24,24,24h80c13.2,0,24-10.8,24-24v-80C512,394.8,501.2,384,488,384z M96,480H32v-64h64V480z M288,480h-64v-64h64V480z   M224,128V64h64v64H224z M480,480h-64v-64h64V480z"
     id="path3"
     style="fill:#dfce89;fill-opacity:1" /></svg>