<?xml version="1.0" encoding="UTF-8" standalone="no"?>
<!-- Generator: Adobe Illustrator 16.0.0, SVG Export Plug-In . SVG Version: 6.00 Build 0)  -->

<svg
   xmlns:dc="http://purl.org/dc/elements/1.1/"
   xmlns:cc="http://creativecommons.org/ns#"
   xmlns:rdf="http://www.w3.org/1999/02/22-rdf-syntax-ns#"
   xmlns:svg="http://www.w3.org/2000/svg"
   xmlns="http://www.w3.org/2000/svg"
   xmlns:sodipodi="http://sodipodi.sourceforge.net/DTD/sodipodi-0.dtd"
   xmlns:inkscape="http://www.inkscape.org/namespaces/inkscape"
   version="1.1"
   id="Layer_1"
   x="0px"
   y="0px"
   width="512px"
   height="512px"
   viewBox="0 0 512 512"
   enable-background="new 0 0 512 512"
   xml:space="preserve"
   inkscape:version="0.48.4 r9939"
   sodipodi:docname="edit.svg"><metadata
     id="metadata9"><rdf:RDF><cc:Work
         rdf:about=""><dc:format>image/svg+xml</dc:format><dc:type
           rdf:resource="http://purl.org/dc/dcmitype/StillImage" /></cc:Work></rdf:RDF></metadata><defs
     id="defs7" /><sodipodi:namedview
     pagecolor="#ffffff"
     bordercolor="#666666"
     borderopacity="1"
     objecttolerance="10"
     gridtolerance="10"
     guidetolerance="10"
     inkscape:pageopacity="0"
     inkscape:pageshadow="2"
     inkscape:window-width="1370"
     inkscape:window-height="651"
     id="namedview5"
     showgrid="false"
     inkscape:zoom="0.4609375"
     inkscape:cx="-133.42373"
     inkscape:cy="256"
     inkscape:window-x="0"
     inkscape:window-y="0"
     inkscape:window-maximized="0"
     inkscape:current-layer="Layer_1" /><path
     d="M493.278,154.515l-22.625,22.641L334.871,41.39l22.625-22.641c25-25,65.531-25,90.531,0l45.25,45.266  C518.246,89,518.246,129.515,493.278,154.515z M176.465,426.031c-6.25,6.25-6.25,16.375,0,22.625c6.25,6.281,16.375,6.281,22.625,0  l248.938-248.875l-22.656-22.641L176.465,426.031z M63.309,312.906c-6.25,6.25-6.25,16.375,0,22.625s16.375,6.25,22.625,0  L334.871,86.64l-22.625-22.625L63.309,312.906z M357.465,109.25L108.559,358.156c-12.5,12.469-12.469,32.75,0,45.25  c12.5,12.5,32.75,12.563,45.281-0.031l248.906-248.859L357.465,109.25z M153.778,471.219c-7.656-7.656-11.344-17.375-12.719-27.375  c-3.25,0.5-6.531,0.969-9.875,0.969c-17.094,0-33.156-6.688-45.25-18.781c-12.094-12.125-18.75-28.156-18.75-45.25  c0-3.125,0.469-6.156,0.906-9.188c-10.344-1.406-19.906-5.938-27.406-13.438c-0.719-0.719-0.969-1.688-1.625-2.469L-0.004,512  l155.906-39.031C155.215,472.344,154.434,471.875,153.778,471.219z"
     id="path3"
     style="fill:#dfce89;fill-opacity:1" /></svg>