<?xml version="1.0" encoding="UTF-8" standalone="no"?>
<!-- Generator: Adobe Illustrator 16.0.4, SVG Export Plug-In . SVG Version: 6.00 Build 0)  -->

<svg
   xmlns:dc="http://purl.org/dc/elements/1.1/"
   xmlns:cc="http://creativecommons.org/ns#"
   xmlns:rdf="http://www.w3.org/1999/02/22-rdf-syntax-ns#"
   xmlns:svg="http://www.w3.org/2000/svg"
   xmlns="http://www.w3.org/2000/svg"
   xmlns:sodipodi="http://sodipodi.sourceforge.net/DTD/sodipodi-0.dtd"
   xmlns:inkscape="http://www.inkscape.org/namespaces/inkscape"
   version="1.1"
   id="Capa_1"
   x="0px"
   y="0px"
   width="100px"
   height="117.5px"
   viewBox="0 0 100 117.5"
   enable-background="new 0 0 100 117.5"
   xml:space="preserve"
   inkscape:version="0.48.5 r10040"
   sodipodi:docname="eye.svg"><metadata
     id="metadata9"><rdf:RDF><cc:Work
         rdf:about=""><dc:format>image/svg+xml</dc:format><dc:type
           rdf:resource="http://purl.org/dc/dcmitype/StillImage" /></cc:Work></rdf:RDF></metadata><defs
     id="defs7" /><sodipodi:namedview
     pagecolor="#ffffff"
     bordercolor="#666666"
     borderopacity="1"
     objecttolerance="10"
     gridtolerance="10"
     guidetolerance="10"
     inkscape:pageopacity="0"
     inkscape:pageshadow="2"
     inkscape:window-width="640"
     inkscape:window-height="480"
     id="namedview5"
     showgrid="false"
     inkscape:zoom="2.0085106"
     inkscape:cx="50"
     inkscape:cy="58.75"
     inkscape:window-x="0"
     inkscape:window-y="0"
     inkscape:window-maximized="0"
     inkscape:current-layer="Capa_1" /><path
     d="M50,32.15c-31.163,0-47.5,22.96-47.5,26.6c0,3.641,16.337,26.6,47.5,26.6c31.161,0,47.5-22.959,47.5-26.6  C97.5,55.11,81.161,32.15,50,32.15z M50,79.212c-11.659,0-21.112-9.161-21.112-20.462S38.341,38.288,50,38.288  s21.111,9.161,21.111,20.462S61.659,79.212,50,79.212z M60.555,58.75c0,5.65-4.727,10.232-10.555,10.232  c-5.83,0-10.555-4.582-10.555-10.232c0-5.65,4.725-10.231,10.555-10.231c3.15,0-1.933,8.108,0,10.231  C51.643,60.553,60.555,56.155,60.555,58.75z"
     id="path3"
     style="fill:#ffff00" /></svg>