<?xml version="1.0" encoding="UTF-8" standalone="no"?>
<!-- Generator: Adobe Illustrator 17.0.0, SVG Export Plug-In . SVG Version: 6.00 Build 0)  -->

<svg
   xmlns:dc="http://purl.org/dc/elements/1.1/"
   xmlns:cc="http://creativecommons.org/ns#"
   xmlns:rdf="http://www.w3.org/1999/02/22-rdf-syntax-ns#"
   xmlns:svg="http://www.w3.org/2000/svg"
   xmlns="http://www.w3.org/2000/svg"
   xmlns:sodipodi="http://sodipodi.sourceforge.net/DTD/sodipodi-0.dtd"
   xmlns:inkscape="http://www.inkscape.org/namespaces/inkscape"
   version="1.1"
   id="Capa_1"
   x="0px"
   y="0px"
   width="64px"
   height="64px"
   viewBox="0 0 64 64"
   style="enable-background:new 0 0 64 64;"
   xml:space="preserve"
   inkscape:version="0.48.4 r9939"
   sodipodi:docname="jack.svg"><metadata
     id="metadata17"><rdf:RDF><cc:Work
         rdf:about=""><dc:format>image/svg+xml</dc:format><dc:type
           rdf:resource="http://purl.org/dc/dcmitype/StillImage" /></cc:Work></rdf:RDF></metadata><defs
     id="defs15" /><sodipodi:namedview
     pagecolor="#ffffff"
     bordercolor="#666666"
     borderopacity="1"
     objecttolerance="10"
     gridtolerance="10"
     guidetolerance="10"
     inkscape:pageopacity="0"
     inkscape:pageshadow="2"
     inkscape:window-width="747"
     inkscape:window-height="480"
     id="namedview13"
     showgrid="false"
     inkscape:zoom="3.6875"
     inkscape:cx="32"
     inkscape:cy="32"
     inkscape:window-x="0"
     inkscape:window-y="0"
     inkscape:window-maximized="0"
     inkscape:current-layer="Capa_1" /><g
     id="g3"
     style="fill:#dfce89;fill-opacity:1"><path
       d="M35.341,52.683l-0.34-0.275c-0.562,0.039-2.148,0.265-3.515,1.459c-0.549,0.479-1.054,1.121-1.445,1.967   c-0.42,0.908-0.704,2.05-0.745,3.504l0.405,0.327c0.828,0.669,2.347,0.208,3.722-0.999l4.112,3.176   c0.618,0.477,1.507,0.363,1.984-0.255s0.363-1.507-0.255-1.984l-4.074-3.146C36.042,54.885,36.156,53.342,35.341,52.683z"
       id="path5"
       style="fill:#dfce89;fill-opacity:1" /><path
       d="M46.757,39.454l-0.407-0.16c-0.522,0.205-1.957,0.891-2.904,2.426c-0.388,0.629-0.683,1.404-0.803,2.344   c-0.126,0.989-0.054,2.159,0.341,3.552l0.485,0.191c0.991,0.39,2.302-0.505,3.251-2.069l4.875,1.797   c0.733,0.27,1.546-0.105,1.816-0.838c0.27-0.733-0.105-1.546-0.838-1.816l-4.83-1.78C48.086,41.344,47.732,39.838,46.757,39.454z"
       id="path7"
       style="fill:#dfce89;fill-opacity:1" /><path
       d="M9.129,41.494l8.278,6.688c-0.134,0.846,0.015,1.563,0.504,1.957l10.438,8.433c0.439-5.097,3.759-6.579,5.619-7   l-10.415-8.415c-0.498-0.403-1.249-0.394-2.067-0.066l-8.257-6.671c-0.772-0.624-1.741-0.823-2.646-0.655   c-2.223-3.645-3.357-7.326-3.859-11.09c1.803,3.869,4.837,7.005,9.613,8.914c-0.005,1.306,0.771,2.542,2.06,3.049l9.902,3.898   c0.125,0.847,0.483,1.486,1.068,1.716l12.486,4.915c-1.109-4.993,1.614-7.403,3.262-8.363l-12.46-4.905   c-0.596-0.235-1.31-0.001-1.991,0.557l-9.877-3.889c-0.944-0.372-1.95-0.259-2.773,0.198c-7.845-2.92-10.166-9.528-10.338-16.974   c3.3,6.303,8.684,11.401,15.397,14.103c0.193,1.393,1.264,2.557,2.725,2.779l10.521,1.602c0.31,0.798,0.801,1.342,1.422,1.436   l13.266,2.021c-2.191-4.622-0.071-7.576,1.323-8.878L39.091,24.84c-0.633-0.096-1.278,0.29-1.818,0.985l-10.494-1.598   c-0.93-0.142-1.823,0.131-2.507,0.672c-8.084-3.255-14.18-10.529-16.208-19.007c-0.005-0.029-0.014-0.055-0.02-0.083   C7.833,4.919,7.652,4.022,7.534,3.11c-0.263-2.037-3.497-2.062-3.231,0c0.1,0.777,0.232,1.547,0.388,2.309   C4.392,5.675,4.174,6.04,4.123,6.521C2.93,17.873,1.763,28.001,8.107,37.894C7.671,39.156,8.03,40.607,9.129,41.494z"
       id="path9"
       style="fill:#dfce89;fill-opacity:1" /><path
       d="M51.349,30.067c-0.239,0.699-0.354,1.52-0.262,2.463c0.097,0.993,0.427,2.117,1.121,3.387l0.515,0.078   c1.053,0.16,2.132-1.003,2.711-2.739l5.152,0.669c0.775,0.101,1.484-0.446,1.585-1.22c0.101-0.775-0.446-1.484-1.22-1.585   l-5.104-0.663c-0.055-1.788-0.735-3.178-1.771-3.336l-0.432-0.066C53.179,27.372,51.932,28.36,51.349,30.067z"
       id="path11"
       style="fill:#dfce89;fill-opacity:1" /></g></svg>