<?xml version="1.0" encoding="UTF-8" standalone="no"?>
<!-- Generator: Adobe Illustrator 16.0.4, SVG Export Plug-In . SVG Version: 6.00 Build 0)  -->

<svg
   xmlns:dc="http://purl.org/dc/elements/1.1/"
   xmlns:cc="http://creativecommons.org/ns#"
   xmlns:rdf="http://www.w3.org/1999/02/22-rdf-syntax-ns#"
   xmlns:svg="http://www.w3.org/2000/svg"
   xmlns="http://www.w3.org/2000/svg"
   xmlns:sodipodi="http://sodipodi.sourceforge.net/DTD/sodipodi-0.dtd"
   xmlns:inkscape="http://www.inkscape.org/namespaces/inkscape"
   version="1.1"
   id="Layer_1"
   x="0px"
   y="0px"
   width="32px"
   height="32px"
   viewBox="0 0 32 32"
   enable-background="new 0 0 32 32"
   xml:space="preserve"
   inkscape:version="0.48.4 r9939"
   sodipodi:docname="learn.svg"><metadata
     id="metadata13"><rdf:RDF><cc:Work
         rdf:about=""><dc:format>image/svg+xml</dc:format><dc:type
           rdf:resource="http://purl.org/dc/dcmitype/StillImage" /></cc:Work></rdf:RDF></metadata><defs
     id="defs11" /><sodipodi:namedview
     pagecolor="#ffffff"
     bordercolor="#666666"
     borderopacity="1"
     objecttolerance="10"
     gridtolerance="10"
     guidetolerance="10"
     inkscape:pageopacity="0"
     inkscape:pageshadow="2"
     inkscape:window-width="747"
     inkscape:window-height="480"
     id="namedview9"
     showgrid="false"
     inkscape:zoom="7.375"
     inkscape:cx="16"
     inkscape:cy="16"
     inkscape:window-x="0"
     inkscape:window-y="0"
     inkscape:window-maximized="0"
     inkscape:current-layer="Layer_1" /><g
     id="g3"
     style="fill:#dfce89;fill-opacity:1"><path
       d="M7.248,17.461v4.5c0,0,3.816,4.219,9.184,4.219c6.753,0,9.184-4.219,9.184-4.219v-4.882l-7.929,4.634   c-0.566,0.331-1.264,0.354-1.851,0.059L7.248,17.461z"
       id="path5"
       style="fill:#dfce89;fill-opacity:1" /><path
       d="M16.631,12.104c-0.991,0-1.978-0.207-2.511-0.637l-9.533,3.302L15.9,20.432c0.585,0.293,1.28,0.271,1.844-0.06   l13.183-7.684c0.615-0.358,0.984-1.025,0.962-1.737c-0.021-0.712-0.434-1.354-1.07-1.672L17.167,2.446   c-0.585-0.293-1.279-0.271-1.844,0.059L2.14,10.189c-0.615,0.358-0.984,1.025-0.962,1.737c0.023,0.711,0.434,1.353,1.071,1.672   L2.22,20.574c-0.682,0.24-1.17,0.892-1.17,1.654c0,0.565,0.266,1.067,0.682,1.39c-0.132,0.963-0.581,1.657-1.113,2.153   c-0.426,0.396-0.651,0.963-0.614,1.545c0.037,0.58,0.333,1.115,0.807,1.453l0.242,0.174c0.449,0.32,1.013,0.435,1.552,0.312   s1-0.465,1.269-0.945c0.928-1.658,0.478-3.811,0.171-4.844c0.317-0.316,0.514-0.755,0.514-1.238c0-0.758-0.482-1.406-1.157-1.65   l0.028-6.661l10.349-3.584c0.09-0.439,0.533-0.843,0.533-0.843c-0.034,0.119,0.033,1.564,2.222,1.564   c1.258,0,2.275-0.401,2.275-1.221c0-0.15-0.035-0.313-0.099-0.481c0.354,0.436,0.565,0.928,0.565,1.331   C19.277,11.637,18.092,12.104,16.631,12.104z"
       id="path7"
       style="fill:#dfce89;fill-opacity:1" /></g></svg>