<?xml version="1.0" encoding="UTF-8" standalone="no"?>
<!-- Generator: Adobe Illustrator 17.0.0, SVG Export Plug-In . SVG Version: 6.00 Build 0)  -->

<svg
   xmlns:dc="http://purl.org/dc/elements/1.1/"
   xmlns:cc="http://creativecommons.org/ns#"
   xmlns:rdf="http://www.w3.org/1999/02/22-rdf-syntax-ns#"
   xmlns:svg="http://www.w3.org/2000/svg"
   xmlns="http://www.w3.org/2000/svg"
   xmlns:sodipodi="http://sodipodi.sourceforge.net/DTD/sodipodi-0.dtd"
   xmlns:inkscape="http://www.inkscape.org/namespaces/inkscape"
   version="1.1"
   id="Capa_1"
   x="0px"
   y="0px"
   width="64px"
   height="64px"
   viewBox="0 0 64 64"
   enable-background="new 0 0 64 64"
   xml:space="preserve"
   inkscape:version="0.48.4 r9939"
   sodipodi:docname="load.svg"><metadata
     id="metadata2999"><rdf:RDF><cc:Work
         rdf:about=""><dc:format>image/svg+xml</dc:format><dc:type
           rdf:resource="http://purl.org/dc/dcmitype/StillImage" /></cc:Work></rdf:RDF></metadata><defs
     id="defs2997" /><sodipodi:namedview
     pagecolor="#ffffff"
     bordercolor="#666666"
     borderopacity="1"
     objecttolerance="10"
     gridtolerance="10"
     guidetolerance="10"
     inkscape:pageopacity="0"
     inkscape:pageshadow="2"
     inkscape:window-width="747"
     inkscape:window-height="480"
     id="namedview2995"
     showgrid="false"
     inkscape:zoom="3.6875"
     inkscape:cx="32"
     inkscape:cy="32"
     inkscape:window-x="0"
     inkscape:window-y="0"
     inkscape:window-maximized="0"
     inkscape:current-layer="Capa_1" /><path
     d="M25.858,44.481h11.429c0.5,0,0.905-0.404,0.905-0.904v-9.958h10.863c0.5,0,0.637-0.303,0.305-0.678L32.229,13.591  c-0.332-0.375-0.869-0.376-1.202-0.002l-17.24,19.354c-0.333,0.375-0.197,0.677,0.303,0.677h10.863v9.958  C24.953,44.077,25.358,44.481,25.858,44.481z"
     id="path2991"
     style="fill:#dfce89;fill-opacity:1" /><path
     d="M54.84,14.846h-7.215c-2.149,0-3.893,1.525-3.893,3.406c0,1.881,0,3.406,0,3.406h8.188v24.864H9.812V21.658h9.602v-3.406  c0-1.881-1.743-3.406-3.893-3.406H6.893C4.743,14.846,3,16.589,3,18.738v30.703c0,2.15,1.743,3.893,3.893,3.893H54.84  c2.149,0,3.893-1.742,3.893-3.893V18.738C58.732,16.589,56.989,14.846,54.84,14.846z"
     id="path2993"
     style="fill:#dfce89;fill-opacity:1" /></svg>