<?xml version="1.0" encoding="UTF-8" standalone="no"?>
<!-- Generator: Adobe Illustrator 16.0.4, SVG Export Plug-In . SVG Version: 6.00 Build 0)  -->

<svg
   xmlns:dc="http://purl.org/dc/elements/1.1/"
   xmlns:cc="http://creativecommons.org/ns#"
   xmlns:rdf="http://www.w3.org/1999/02/22-rdf-syntax-ns#"
   xmlns:svg="http://www.w3.org/2000/svg"
   xmlns="http://www.w3.org/2000/svg"
   xmlns:sodipodi="http://sodipodi.sourceforge.net/DTD/sodipodi-0.dtd"
   xmlns:inkscape="http://www.inkscape.org/namespaces/inkscape"
   version="1.1"
   id="Capa_1"
   x="0px"
   y="0px"
   width="16.061px"
   height="16.027px"
   viewBox="0 0 16.061 16.027"
   enable-background="new 0 0 16.061 16.027"
   xml:space="preserve"
   inkscape:version="0.48.4 r9939"
   sodipodi:docname="mute.svg"><metadata
     id="metadata3012"><rdf:RDF><cc:Work
         rdf:about=""><dc:format>image/svg+xml</dc:format><dc:type
           rdf:resource="http://purl.org/dc/dcmitype/StillImage" /></cc:Work></rdf:RDF></metadata><defs
     id="defs3010" /><sodipodi:namedview
     pagecolor="#ffffff"
     bordercolor="#666666"
     borderopacity="1"
     objecttolerance="10"
     gridtolerance="10"
     guidetolerance="10"
     inkscape:pageopacity="0"
     inkscape:pageshadow="2"
     inkscape:window-width="747"
     inkscape:window-height="480"
     id="namedview3008"
     showgrid="false"
     inkscape:zoom="14.725151"
     inkscape:cx="8.0305004"
     inkscape:cy="8.0135002"
     inkscape:window-x="0"
     inkscape:window-y="0"
     inkscape:window-maximized="0"
     inkscape:current-layer="Capa_1" /><g
     id="g3002"
     style="fill:#dfce89;fill-opacity:1"><path
       d="M8.292,0.003C8.11-0.014,7.897,0.03,7.646,0.182c0,0-4.17,3.638-4.352,3.817H1C0.448,4,0,4.448,0,5v6.127   c0,0.554,0.448,1,1,1h2.295c0.182,0.181,4.352,3.69,4.352,3.69c0.251,0.151,0.464,0.196,0.646,0.179   c0.37-0.035,0.63-0.345,0.709-0.672C9.005,15.292,9.005,0.708,9,0.676C8.922,0.348,8.661,0.038,8.292,0.003z"
       id="path3004"
       style="fill:#dfce89;fill-opacity:1" /><path
       d="M14.095,8l1.726-1.726c0.239-0.238,0.239-0.625,0-0.863c-0.238-0.238-0.625-0.238-0.863,0l-1.726,1.727l-1.727-1.727   c-0.237-0.238-0.625-0.238-0.862,0c-0.238,0.238-0.238,0.625,0,0.863L12.369,8l-1.726,1.727c-0.238,0.237-0.238,0.625,0,0.862   c0.237,0.238,0.625,0.238,0.862,0l1.727-1.726l1.726,1.726c0.238,0.238,0.625,0.238,0.863,0c0.238-0.237,0.238-0.625,0-0.862   L14.095,8z"
       id="path3006"
       style="fill:#dfce89;fill-opacity:1" /></g></svg>