<?xml version="1.0" encoding="UTF-8" standalone="no"?>
<!-- Generator: Adobe Illustrator 16.0.0, SVG Export Plug-In . SVG Version: 6.00 Build 0)  -->

<svg
   xmlns:dc="http://purl.org/dc/elements/1.1/"
   xmlns:cc="http://creativecommons.org/ns#"
   xmlns:rdf="http://www.w3.org/1999/02/22-rdf-syntax-ns#"
   xmlns:svg="http://www.w3.org/2000/svg"
   xmlns="http://www.w3.org/2000/svg"
   xmlns:sodipodi="http://sodipodi.sourceforge.net/DTD/sodipodi-0.dtd"
   xmlns:inkscape="http://www.inkscape.org/namespaces/inkscape"
   version="1.1"
   id="Layer_1"
   x="0px"
   y="0px"
   width="48px"
   height="48px"
   viewBox="0 0 48 48"
   enable-background="new 0 0 48 48"
   xml:space="preserve"
   inkscape:version="0.48.5 r10040"
   sodipodi:docname="new.svg"><metadata
     id="metadata9"><rdf:RDF><cc:Work
         rdf:about=""><dc:format>image/svg+xml</dc:format><dc:type
           rdf:resource="http://purl.org/dc/dcmitype/StillImage" /><dc:title></dc:title></cc:Work></rdf:RDF></metadata><defs
     id="defs7" /><sodipodi:namedview
     pagecolor="#ffffff"
     bordercolor="#666666"
     borderopacity="1"
     objecttolerance="10"
     gridtolerance="10"
     guidetolerance="10"
     inkscape:pageopacity="0"
     inkscape:pageshadow="2"
     inkscape:window-width="1600"
     inkscape:window-height="853"
     id="namedview5"
     showgrid="false"
     inkscape:zoom="6.9532167"
     inkscape:cx="14.551706"
     inkscape:cy="38.835234"
     inkscape:window-x="-2"
     inkscape:window-y="-3"
     inkscape:window-maximized="1"
     inkscape:current-layer="Layer_1" /><path
     inkscape:connector-curvature="0"
     d="m 23.773922,8.8085613 c -8.284326,0 -14.9999997,6.7156747 -14.9999997,14.9999987 0,8.284326 6.7156737,15.000001 14.9999997,15.000001 8.284326,0 15,-6.715675 15,-15.000001 0,-8.284324 -6.715674,-14.9999987 -15,-14.9999987 z M 32.444741,25.72305 c 0,0.453186 -0.367362,0.820472 -0.820551,0.820472 h -5.115308 v 5.11538 c 0,0.453116 -0.367356,0.820479 -0.820473,0.820479 h -3.828975 c -0.453117,0 -0.820473,-0.367363 -0.820473,-0.820479 v -5.11538 h -5.115379 c -0.453117,0 -0.820479,-0.367356 -0.820479,-0.820472 v -3.828978 c 0,-0.453116 0.367362,-0.820472 0.820479,-0.820472 h 5.115379 v -5.11538 c 0,-0.453116 0.367284,-0.820479 0.820473,-0.820479 h 3.828975 c 0.453117,0 0.820473,0.367363 0.820473,0.820479 v 5.11538 h 5.115308 c 0.453117,0 0.820551,0.367356 0.820551,0.820472 v 3.828978 z"
     id="path3-0"
     style="fill:#00ff00;fill-opacity:1" /></svg>