<?xml version="1.0" encoding="UTF-8" standalone="no"?>
<!-- Generator: Adobe Illustrator 17.1.0, SVG Export Plug-In . SVG Version: 6.00 Build 0)  -->

<svg
   xmlns:dc="http://purl.org/dc/elements/1.1/"
   xmlns:cc="http://creativecommons.org/ns#"
   xmlns:rdf="http://www.w3.org/1999/02/22-rdf-syntax-ns#"
   xmlns:svg="http://www.w3.org/2000/svg"
   xmlns="http://www.w3.org/2000/svg"
   xmlns:sodipodi="http://sodipodi.sourceforge.net/DTD/sodipodi-0.dtd"
   xmlns:inkscape="http://www.inkscape.org/namespaces/inkscape"
   version="1.1"
   id="Layer_1"
   x="0px"
   y="0px"
   width="1000px"
   height="1000px"
   viewBox="0 0 1000 1000"
   enable-background="new 0 0 1000 1000"
   xml:space="preserve"
   inkscape:version="0.48.5 r10040"
   sodipodi:docname="paint.svg"><metadata
     id="metadata13"><rdf:RDF><cc:Work
         rdf:about=""><dc:format>image/svg+xml</dc:format><dc:type
           rdf:resource="http://purl.org/dc/dcmitype/StillImage" /></cc:Work></rdf:RDF></metadata><defs
     id="defs11" /><sodipodi:namedview
     pagecolor="#ffffff"
     bordercolor="#666666"
     borderopacity="1"
     objecttolerance="10"
     gridtolerance="10"
     guidetolerance="10"
     inkscape:pageopacity="0"
     inkscape:pageshadow="2"
     inkscape:window-width="747"
     inkscape:window-height="480"
     id="namedview9"
     showgrid="false"
     inkscape:zoom="0.236"
     inkscape:cx="500"
     inkscape:cy="500"
     inkscape:window-x="0"
     inkscape:window-y="0"
     inkscape:window-maximized="0"
     inkscape:current-layer="g3" /><g
     id="g3"><path
       d="M145.837,959.167c14.171,14.171,38.842,12.477,55.103-3.785l172.059-172.059l125.145,125.145   c16.261,16.261,42.626,16.261,58.888,0l48.765-48.765c16.261-16.261,16.261-42.626,0-58.888l-412.26-412.26   c-16.261-16.261-42.626-16.261-58.888,0l-48.765,48.765c-16.261,16.261-16.261,42.626,0,58.888l125.145,125.145L38.97,793.413   c-16.261,16.261-17.956,40.932-3.785,55.103L145.837,959.167z M130.121,803.161c16.864-16.864,44.207-16.864,61.071,0   c16.865,16.864,16.865,44.207,0,61.071c-16.864,16.864-44.207,16.864-61.071,0C113.256,847.368,113.256,820.025,130.121,803.161z"
       id="path5"
       style="fill:#dfce89;fill-opacity:1" /><path
       d="M208.458,336.374c0.087,0.604,0.189,1.206,0.305,1.806c0.141,0.727,0.31,1.45,0.494,2.17   c1.633,6.404,4.948,12.467,9.959,17.479l104.327,104.327l312.982,312.982c2.788,2.788,5.9,5.052,9.215,6.795   c1.105,0.581,2.233,1.103,3.378,1.568c1.719,0.697,3.478,1.263,5.262,1.699c1.261,0.308,2.535,0.546,3.816,0.723   c1.055,0.146,2.115,0.247,3.177,0.305c0.11,0.006,0.22,0.014,0.331,0.02c0.58,0.026,1.159,0.042,1.739,0.042   c0.019,0,0.037-0.002,0.055-0.002c0.791-0.001,1.581-0.035,2.371-0.085c0.21-0.013,0.42-0.029,0.629-0.045   c0.805-0.064,1.609-0.144,2.409-0.26c3.019-0.436,5.996-1.234,8.86-2.396c1.146-0.465,2.273-0.987,3.378-1.568   c0.552-0.29,1.1-0.595,1.64-0.915c2.028-1.198,3.968-2.6,5.792-4.206c0.608-0.535,1.203-1.093,1.783-1.674l122.314-122.314   l122.314-122.314l19.899-19.899c0.601-0.6,1.176-1.216,1.728-1.845c3.861-4.405,6.528-9.49,8.016-14.834   c3.562-12.799,0.32-27.095-9.744-37.16l-4.789-4.789L573.698,75.579l-36.117-36.117c-0.929-0.929-1.895-1.8-2.891-2.613   s-2.025-1.568-3.081-2.265c-1.583-1.045-3.227-1.96-4.917-2.744c-1.126-0.523-2.273-0.987-3.436-1.394s-2.341-0.755-3.531-1.045   c-1.784-0.436-3.594-0.74-5.414-0.915c-0.572-0.055-1.144-0.094-1.717-0.123c-0.188-0.01-0.376-0.012-0.564-0.018   c-0.387-0.014-0.774-0.026-1.162-0.028c-0.069,0-0.138-0.005-0.207-0.005c-0.108,0-0.216,0.009-0.324,0.01   c-0.545,0.005-1.09,0.021-1.634,0.049c-0.166,0.009-0.332,0.015-0.498,0.025c-0.671,0.043-1.342,0.102-2.011,0.18   c-0.12,0.014-0.24,0.034-0.361,0.049c-0.565,0.072-1.129,0.157-1.691,0.254c-0.182,0.031-0.363,0.063-0.545,0.097   c-0.669,0.126-1.337,0.263-2,0.425c-0.435,0.106-0.867,0.229-1.299,0.351c-6.062,1.709-11.786,4.94-16.557,9.711l-4.731,4.731   L219.216,303.989c-3.576,3.576-6.283,7.69-8.138,12.077c-0.164,0.388-0.32,0.778-0.471,1.17c-0.521,1.356-0.963,2.734-1.323,4.13   c-0.364,1.41-0.65,2.836-0.85,4.272c-0.159,1.144-0.27,2.293-0.325,3.444c-0.029,0.608-0.044,1.217-0.044,1.826   s0.014,1.218,0.044,1.826C208.167,333.951,208.283,335.166,208.458,336.374z M504.956,60.675c1.954-1.953,4.181-2.363,5.706-2.363   c1.525,0,3.753,0.41,5.706,2.363l417.309,417.309c1.954,1.953,2.364,4.181,2.364,5.706c0,1.525-0.41,3.752-2.364,5.706   l-35.76,35.76c-22.289-2.576-45.004-2.171-66.333,4.598c-17.153,5.443-30.652,15.387-44.135,27.032   c-14.211,12.274-29.746,25.286-48.874,28.549c-16.184,2.761-34.984,0.664-46.475-12.539   c-12.031-13.824-15.919-32.876-11.342-50.597c4.674-18.094,15.434-33.3,26.217-48.233c11.19-15.497,22.867-30.812,32.258-47.503   c9.071-16.121,29.632-47.116,18.218-65.91c-11.97-19.703-41.84-11.31-57.961-2.262c-33.237,18.693-57.011,48.939-79.784,78.753   c-6.471,8.472-12.824,17.068-19.581,25.316c-6.124,7.476-13.219,14.29-22.527,17.516c-19.011,6.59-37.264-4.955-39.798-24.721   c-2.481-19.355,12.443-34.246,25.228-46.509c14.409-13.82,29.678-26.718,43.985-40.645c13.527-13.168,26.929-27.273,36.038-43.971   c3.133-5.744,6.147-12.423,7.196-19.151c-27.065,0.615-54.272,1.188-79.893-9.117c-16.372-6.585-31.188-17.422-40.013-33.036   c-7.671-13.571-10.892-28.956-11.21-44.451c-0.637-30.967,7.706-61.689,1.901-92.569c-3.923-20.872-11.735-40.511-23.139-57.968   L504.956,60.675z"
       id="path7"
       style="fill:#dfce89;fill-opacity:1" /></g></svg>