<?xml version="1.0" encoding="UTF-8" standalone="no"?>
<!-- Generator: IcoMoon.io -->

<svg
   xmlns:dc="http://purl.org/dc/elements/1.1/"
   xmlns:cc="http://creativecommons.org/ns#"
   xmlns:rdf="http://www.w3.org/1999/02/22-rdf-syntax-ns#"
   xmlns:svg="http://www.w3.org/2000/svg"
   xmlns="http://www.w3.org/2000/svg"
   xmlns:sodipodi="http://sodipodi.sourceforge.net/DTD/sodipodi-0.dtd"
   xmlns:inkscape="http://www.inkscape.org/namespaces/inkscape"
   version="1.1"
   id="Layer_1"
   x="0px"
   y="0px"
   width="48px"
   height="48px"
   viewBox="0 0 48 48"
   enable-background="new 0 0 16 16"
   xml:space="preserve"
   fill="#000000"
   inkscape:version="0.48.4 r9939"
   sodipodi:docname="pause.svg"><metadata
     id="metadata3030"><rdf:RDF><cc:Work
         rdf:about=""><dc:format>image/svg+xml</dc:format><dc:type
           rdf:resource="http://purl.org/dc/dcmitype/StillImage" /></cc:Work></rdf:RDF></metadata><defs
     id="defs3028" /><sodipodi:namedview
     pagecolor="#ffffff"
     bordercolor="#666666"
     borderopacity="1"
     objecttolerance="10"
     gridtolerance="10"
     guidetolerance="10"
     inkscape:pageopacity="0"
     inkscape:pageshadow="2"
     inkscape:window-width="747"
     inkscape:window-height="480"
     id="namedview3026"
     showgrid="false"
     inkscape:zoom="4.9166667"
     inkscape:cx="24"
     inkscape:cy="24"
     inkscape:window-x="0"
     inkscape:window-y="0"
     inkscape:window-maximized="0"
     inkscape:current-layer="Layer_1" /><path
     d="M 36.00,39.00l-6.00,0.00 c-1.659,0.00-3.00-1.341-3.00-3.00L27.00,12.00 c0.00-1.659, 1.341-3.00, 3.00-3.00l6.00,0.00 c 1.659,0.00, 3.00,1.341, 3.00,3.00l0.00,24.00 C 39.00,37.659, 37.659,39.00, 36.00,39.00z M 18.00,39.00L12.00,39.00 c-1.659,0.00-3.00-1.341-3.00-3.00L9.00,12.00 c0.00-1.659, 1.341-3.00, 3.00-3.00l6.00,0.00 c 1.659,0.00, 3.00,1.341, 3.00,3.00l0.00,24.00 C 21.00,37.659, 19.659,39.00, 18.00,39.00z"
     id="path3024"
     style="fill:#dfce89;fill-opacity:1" /></svg>