<?xml version="1.0" encoding="iso-8859-1"?>
<!-- Generator: Adobe Illustrator 16.0.0, SVG Export Plug-In . SVG Version: 6.00 Build 0)  -->
<!DOCTYPE svg PUBLIC "-//W3C//DTD SVG 1.1//EN" "http://www.w3.org/Graphics/SVG/1.1/DTD/svg11.dtd">
<svg version="1.1" id="Layer_1" xmlns="http://www.w3.org/2000/svg" xmlns:xlink="http://www.w3.org/1999/xlink" x="0px" y="0px"
	 width="512px" height="512px" viewBox="0 0 512 512" style="enable-background:new 0 0 512 512;" xml:space="preserve">
<path d="M256,47.511C140.854,47.511,47.511,140.854,47.511,256S140.854,464.489,256,464.489S464.489,371.146,464.489,256
	S371.146,47.511,256,47.511z M376.518,282.61c0,6.299-5.106,11.404-11.405,11.404h-71.099v71.1c0,6.298-5.106,11.404-11.404,11.404
	h-53.22c-6.298,0-11.404-5.106-11.404-11.404v-71.1h-71.1c-6.298,0-11.404-5.106-11.404-11.404V229.39
	c0-6.298,5.106-11.404,11.404-11.404h71.1v-71.1c0-6.298,5.105-11.404,11.404-11.404h53.22c6.298,0,11.404,5.106,11.404,11.404v71.1
	h71.099c6.298,0,11.405,5.106,11.405,11.404V282.61z"/>
</svg>
