<?xml version="1.0" encoding="UTF-8" standalone="no"?>
<!-- Generator: Adobe Illustrator 16.0.4, SVG Export Plug-In . SVG Version: 6.00 Build 0)  -->

<svg
   xmlns:dc="http://purl.org/dc/elements/1.1/"
   xmlns:cc="http://creativecommons.org/ns#"
   xmlns:rdf="http://www.w3.org/1999/02/22-rdf-syntax-ns#"
   xmlns:svg="http://www.w3.org/2000/svg"
   xmlns="http://www.w3.org/2000/svg"
   xmlns:sodipodi="http://sodipodi.sourceforge.net/DTD/sodipodi-0.dtd"
   xmlns:inkscape="http://www.inkscape.org/namespaces/inkscape"
   version="1.1"
   id="Capa_1"
   x="0px"
   y="0px"
   width="216px"
   height="146px"
   viewBox="0 0 216 146"
   enable-background="new 0 0 216 146"
   xml:space="preserve"
   inkscape:version="0.48.4 r9939"
   sodipodi:docname="question.svg"><metadata
     id="metadata13"><rdf:RDF><cc:Work
         rdf:about=""><dc:format>image/svg+xml</dc:format><dc:type
           rdf:resource="http://purl.org/dc/dcmitype/StillImage" /></cc:Work></rdf:RDF></metadata><defs
     id="defs11" /><sodipodi:namedview
     pagecolor="#ffffff"
     bordercolor="#666666"
     borderopacity="1"
     objecttolerance="10"
     gridtolerance="10"
     guidetolerance="10"
     inkscape:pageopacity="0"
     inkscape:pageshadow="2"
     inkscape:window-width="637"
     inkscape:window-height="512"
     id="namedview9"
     showgrid="false"
     inkscape:zoom="2.2588133"
     inkscape:cx="85.537958"
     inkscape:cy="62.346678"
     inkscape:window-x="891"
     inkscape:window-y="238"
     inkscape:window-maximized="0"
     inkscape:current-layer="Capa_1" /><g
     id="g3"><path
       d="M116.639,99.07H97.086c-0.868,0-1.629,0.328-2.281,0.979c-0.652,0.652-0.978,1.412-0.978,2.281v19.554   c0,0.869,0.327,1.63,0.978,2.281c0.652,0.651,1.412,0.978,2.281,0.978h19.553c0.869,0,1.631-0.326,2.281-0.978   c0.653-0.651,0.979-1.412,0.979-2.281V102.33c0-0.869-0.325-1.629-0.979-2.281C118.27,99.396,117.508,99.07,116.639,99.07z"
       id="path5" /><path
       d="M142.305,40.535c-2.227-4.103-5.105-7.564-8.636-10.389c-3.53-2.824-7.497-5.079-11.896-6.762   c-4.399-1.683-8.771-2.525-13.117-2.525c-16.511,0-29.112,7.224-37.803,21.672c-0.434,0.706-0.584,1.466-0.448,2.281   c0.136,0.814,0.557,1.493,1.263,2.036L85.03,57.033c0.706,0.434,1.385,0.651,2.037,0.651c0.978,0,1.819-0.435,2.526-1.304   c3.91-4.888,6.816-8.011,8.717-9.369c2.336-1.575,5.268-2.362,8.799-2.362c3.313,0,6.232,0.869,8.758,2.606   c2.525,1.738,3.787,3.748,3.787,6.029c0,2.552-0.678,4.617-2.036,6.192c-1.358,1.575-3.64,3.095-6.845,4.562   c-4.235,1.901-8.12,4.848-11.649,8.84c-3.531,3.992-5.296,8.242-5.296,12.75v3.667c0,1.032,0.284,2.05,0.855,3.055   c0.571,1.006,1.263,1.508,2.078,1.508h19.553c0.869,0,1.629-0.42,2.281-1.264c0.651-0.841,0.978-1.723,0.978-2.646   c0-1.357,0.747-3.178,2.239-5.459c1.494-2.281,3.354-4.047,5.582-5.297c2.117-1.194,3.773-2.158,4.969-2.892   c1.197-0.732,2.758-1.915,4.687-3.544c1.927-1.63,3.421-3.246,4.479-4.848c1.06-1.602,2.011-3.68,2.853-6.233   c0.843-2.553,1.263-5.296,1.263-8.229C145.645,48.938,144.531,44.634,142.305,40.535z"
       id="path7" /></g><path
     style="fill:#dfce89;fill-opacity:1"
     d="m 95.450079,92.390702 c -0.770584,-0.851485 -1.036166,-2.350356 -1.036166,-5.847828 0,-3.986153 0.289967,-5.283149 1.902661,-8.510437 2.480012,-4.962943 8.199896,-10.288197 14.919286,-13.889955 2.85707,-1.531461 5.73389,-3.46998 6.39293,-4.307821 1.49589,-1.901718 2.66063,-6.088887 2.20202,-7.91614 -1.09362,-4.357324 -6.45333,-7.405062 -12.9509,-7.364387 -5.92613,0.0371 -8.908305,1.594831 -13.847792,7.233376 -4.460391,5.091646 -4.823611,5.412225 -6.147156,5.425511 -0.88616,0.0089 -11.662686,-7.821284 -14.853658,-10.792607 -1.870281,-1.741541 -1.799262,-2.25305 0.859216,-6.18842 8.359431,-12.374548 20.411434,-18.804026 35.22348,-18.790948 8.796,0.0078 15.04924,2.063342 23.31433,7.663941 4.72586,3.202332 8.26123,7.353827 11.02549,12.946924 1.98462,4.015593 2.32709,5.36821 2.54749,10.061507 0.20594,4.385289 -0.005,6.190567 -1.10393,9.439882 -2.41711,7.148095 -5.5841,10.53429 -15.84639,16.943246 -4.37117,2.729859 -7.52897,6.435438 -8.33237,9.777772 -0.24033,0.999823 -0.82726,2.592639 -1.3043,3.539595 l -0.86735,1.721739 -10.53036,0 c -9.406521,0 -10.640949,-0.122193 -11.566531,-1.14495 l 0,0 z"
     id="path3760"
     inkscape:connector-curvature="0" /><path
     style="fill:#dfce89;fill-opacity:1"
     d="m 95.509565,124.16376 c -0.978881,-0.57014 -1.095652,-1.83213 -1.095652,-11.84111 0,-14.120301 -0.921678,-13.152215 12.521737,-13.152215 13.41553,0 12.52174,-0.915471 12.52174,12.825565 0,9.05276 -0.16495,11.04125 -0.98385,11.86015 -0.81742,0.81742 -2.75028,0.98063 -11.42609,0.96481 -5.92167,-0.0108 -10.916553,-0.2953 -11.537885,-0.6572 z"
     id="path3762"
     inkscape:connector-curvature="0" /></svg>