<?xml version="1.0" encoding="utf-8"?>
<!-- Generator: Adobe Illustrator 16.0.4, SVG Export Plug-In . SVG Version: 6.00 Build 0)  -->
<!DOCTYPE svg PUBLIC "-//W3C//DTD SVG 1.1//EN" "http://www.w3.org/Graphics/SVG/1.1/DTD/svg11.dtd">
<svg version="1.1" id="Capa_1" xmlns="http://www.w3.org/2000/svg" xmlns:xlink="http://www.w3.org/1999/xlink" x="0px" y="0px"
	 width="24.395px" height="23.303px" viewBox="0 0 24.395 23.303" enable-background="new 0 0 24.395 23.303" xml:space="preserve">
<g>
	<polygon points="14.992,6.781 17.786,4.058 13.926,3.497 12.198,0 10.472,3.497 6.612,4.058 9.406,6.781 8.746,10.625 
		12.198,8.811 15.651,10.625 	"/>
	<polygon points="7.312,16.174 5.585,12.675 3.86,16.174 0,16.735 2.791,19.457 2.133,23.303 5.586,21.49 9.038,23.303 
		8.379,19.457 11.174,16.735 	"/>
	<polygon points="24.395,16.735 20.535,16.174 18.808,12.675 17.079,16.174 13.221,16.735 16.015,19.457 15.353,23.303 
		18.807,21.49 22.261,23.303 21.6,19.457 	"/>
</g>
</svg>
