<?xml version="1.0" encoding="UTF-8" standalone="no"?>
<!-- Generator: Adobe Illustrator 16.0.0, SVG Export Plug-In . SVG Version: 6.00 Build 0)  -->

<svg
   xmlns:dc="http://purl.org/dc/elements/1.1/"
   xmlns:cc="http://creativecommons.org/ns#"
   xmlns:rdf="http://www.w3.org/1999/02/22-rdf-syntax-ns#"
   xmlns:svg="http://www.w3.org/2000/svg"
   xmlns="http://www.w3.org/2000/svg"
   xmlns:sodipodi="http://sodipodi.sourceforge.net/DTD/sodipodi-0.dtd"
   xmlns:inkscape="http://www.inkscape.org/namespaces/inkscape"
   version="1.1"
   id="Layer_1"
   x="0px"
   y="0px"
   width="100px"
   height="100px"
   viewBox="0 0 100 100"
   enable-background="new 0 0 100 100"
   xml:space="preserve"
   inkscape:version="0.48.4 r9939"
   sodipodi:docname="rubber2.svg"><metadata
     id="metadata3097"><rdf:RDF><cc:Work
         rdf:about=""><dc:format>image/svg+xml</dc:format><dc:type
           rdf:resource="http://purl.org/dc/dcmitype/StillImage" /></cc:Work></rdf:RDF></metadata><defs
     id="defs3095" /><sodipodi:namedview
     pagecolor="#ffffff"
     bordercolor="#666666"
     borderopacity="1"
     objecttolerance="10"
     gridtolerance="10"
     guidetolerance="10"
     inkscape:pageopacity="0"
     inkscape:pageshadow="2"
     inkscape:window-width="747"
     inkscape:window-height="480"
     id="namedview3093"
     showgrid="false"
     inkscape:zoom="2.36"
     inkscape:cx="50"
     inkscape:cy="50"
     inkscape:window-x="0"
     inkscape:window-y="0"
     inkscape:window-maximized="0"
     inkscape:current-layer="Layer_1" /><g
     id="g3087"
     style="fill:#dfce89;fill-opacity:1"><path
       d="M80.924,40.938L57.381,17.397c-0.813-0.814-2.215-0.732-3.131,0.184L30.246,41.587l26.488,26.49l24.004-24.008   C81.652,43.153,81.738,41.753,80.924,40.938z"
       id="path3089"
       style="fill:#dfce89;fill-opacity:1" /><path
       d="M22.389,49.442c-0.916,0.914-0.998,2.318-0.184,3.131l23.541,23.543c0.277,0.277,0.631,0.412,1.004,0.484   c0.412,0.361,0.945,0.588,1.537,0.588H76.74c1.295,0,2.346-1.051,2.346-2.346s-1.051-2.346-2.346-2.346H52.313l2.211-2.211   L28.035,43.798L22.389,49.442z"
       id="path3091"
       style="fill:#dfce89;fill-opacity:1" /></g></svg>