<?xml version="1.0" encoding="UTF-8" standalone="no"?>
<!-- Generator: Adobe Illustrator 16.0.0, SVG Export Plug-In . SVG Version: 6.00 Build 0)  -->

<svg
   xmlns:dc="http://purl.org/dc/elements/1.1/"
   xmlns:cc="http://creativecommons.org/ns#"
   xmlns:rdf="http://www.w3.org/1999/02/22-rdf-syntax-ns#"
   xmlns:svg="http://www.w3.org/2000/svg"
   xmlns="http://www.w3.org/2000/svg"
   xmlns:sodipodi="http://sodipodi.sourceforge.net/DTD/sodipodi-0.dtd"
   xmlns:inkscape="http://www.inkscape.org/namespaces/inkscape"
   version="1.1"
   id="Layer_1"
   x="0px"
   y="0px"
   width="27.982px"
   height="31.666px"
   viewBox="0 0 27.982 31.666"
   style="enable-background:new 0 0 27.982 31.666;"
   xml:space="preserve"
   inkscape:version="0.48.4 r9939"
   sodipodi:docname="rubber.svg"><metadata
     id="metadata3084"><rdf:RDF><cc:Work
         rdf:about=""><dc:format>image/svg+xml</dc:format><dc:type
           rdf:resource="http://purl.org/dc/dcmitype/StillImage" /></cc:Work></rdf:RDF></metadata><defs
     id="defs3082" /><sodipodi:namedview
     pagecolor="#ffffff"
     bordercolor="#666666"
     borderopacity="1"
     objecttolerance="10"
     gridtolerance="10"
     guidetolerance="10"
     inkscape:pageopacity="0"
     inkscape:pageshadow="2"
     inkscape:window-width="1600"
     inkscape:window-height="853"
     id="namedview3080"
     showgrid="false"
     inkscape:zoom="7.4527884"
     inkscape:cx="-4.5926485"
     inkscape:cy="15.833"
     inkscape:window-x="-2"
     inkscape:window-y="-3"
     inkscape:window-maximized="1"
     inkscape:current-layer="Layer_1" /><g
     id="g3042"
     style="fill:#dfce89;fill-opacity:1"><path
       d="M26.276,10.573c-0.014,0.035-0.031,0.067-0.046,0.103c0.018-0.031,0.038-0.061,0.055-0.091   C26.282,10.581,26.278,10.577,26.276,10.573z"
       id="path3044"
       style="fill:#dfce89;fill-opacity:1" /><path
       d="M13.238,29.559c-0.546,0.709-1.404,1.115-2.356,1.115c-0.765,0-1.533-0.266-2.164-0.75l-7.827-6.018   c-0.169-0.13-0.323-0.274-0.465-0.427c0.233,0.785,0.702,1.493,1.379,2.013l6.951,5.342c0.699,0.537,1.554,0.832,2.407,0.832   c1.101,0,2.1-0.479,2.74-1.313l13.382-17.416c0.543-0.705,0.69-1.721,0.697-2.567L13.238,29.559z"
       id="path3046"
       style="fill:#dfce89;fill-opacity:1" /><path
       d="M1.061,23.686l7.828,6.018c0.582,0.447,1.289,0.693,1.993,0.693c0.865,0,1.644-0.367,2.136-1.009L27.972,9.926   c-0.003-0.074-0.006-0.15-0.012-0.219c-0.07-0.912-0.47-2.623-1.652-3.533l-6.951-5.342C18.658,0.296,17.804,0,16.95,0   c-0.971,0-1.658,0.35-2.112,0.697L0.3,19.617c-0.006,0.007-0.009,0.016-0.015,0.023c-0.262,0.607-0.381,1.331-0.196,2.207   c0.11,0.604,0.14,0.764,0.177,0.973C0.475,23.146,0.74,23.44,1.061,23.686z M14.449,2.5c0.641-0.834,1.64-1.313,2.74-1.313   c0.854,0,1.708,0.296,2.405,0.832l5.777,4.21c1.183,0.909,1.503,1.596,1.573,2.508c0.028,0.527-0.125,0.99-0.292,1.327l0.006,0.005   l-0.036,0.057c-0.072,0.139-0.141,0.244-0.201,0.326l-0.428,0.685l-0.079,0.104c0.125-0.174,0.23-0.361,0.315-0.563   c-0.03,0.055-0.058,0.109-0.098,0.161l-0.221,0.407l-5.022,6.554l-0.721-0.552l-0.013,0.018l-9.076-6.973L9.514,9.099L14.449,2.5z"
       id="path3048"
       style="fill:#dfce89;fill-opacity:1" /></g><g
     id="g3050" /><g
     id="g3052" /><g
     id="g3054" /><g
     id="g3056" /><g
     id="g3058" /><g
     id="g3060" /><g
     id="g3062" /><g
     id="g3064" /><g
     id="g3066" /><g
     id="g3068" /><g
     id="g3070" /><g
     id="g3072" /><g
     id="g3074" /><g
     id="g3076" /><g
     id="g3078" /></svg>