<?xml version="1.0" encoding="UTF-8" standalone="no"?>
<!-- Generator: Adobe Illustrator 17.0.0, SVG Export Plug-In . SVG Version: 6.00 Build 0)  -->

<svg
   xmlns:dc="http://purl.org/dc/elements/1.1/"
   xmlns:cc="http://creativecommons.org/ns#"
   xmlns:rdf="http://www.w3.org/1999/02/22-rdf-syntax-ns#"
   xmlns:svg="http://www.w3.org/2000/svg"
   xmlns="http://www.w3.org/2000/svg"
   xmlns:sodipodi="http://sodipodi.sourceforge.net/DTD/sodipodi-0.dtd"
   xmlns:inkscape="http://www.inkscape.org/namespaces/inkscape"
   version="1.1"
   id="Capa_1"
   x="0px"
   y="0px"
   width="64px"
   height="64px"
   viewBox="0 0 64 64"
   enable-background="new 0 0 64 64"
   xml:space="preserve"
   inkscape:version="0.48.4 r9939"
   sodipodi:docname="save.svg"><metadata
     id="metadata3108"><rdf:RDF><cc:Work
         rdf:about=""><dc:format>image/svg+xml</dc:format><dc:type
           rdf:resource="http://purl.org/dc/dcmitype/StillImage" /></cc:Work></rdf:RDF></metadata><defs
     id="defs3106" /><sodipodi:namedview
     pagecolor="#ffffff"
     bordercolor="#666666"
     borderopacity="1"
     objecttolerance="10"
     gridtolerance="10"
     guidetolerance="10"
     inkscape:pageopacity="0"
     inkscape:pageshadow="2"
     inkscape:window-width="747"
     inkscape:window-height="480"
     id="namedview3104"
     showgrid="false"
     inkscape:zoom="3.6875"
     inkscape:cx="32"
     inkscape:cy="32"
     inkscape:window-x="0"
     inkscape:window-y="0"
     inkscape:window-maximized="0"
     inkscape:current-layer="Capa_1" /><path
     d="M37.73,11.863H26.302c-0.5,0-0.905,0.404-0.905,0.904v9.958H14.533c-0.5,0-0.637,0.303-0.305,0.678l17.131,19.351  c0.332,0.375,0.87,0.376,1.202,0.002l17.24-19.354c0.333-0.375,0.197-0.677-0.303-0.677H38.636v-9.958  C38.636,12.268,38.23,11.863,37.73,11.863z"
     id="path3100"
     style="fill:#dfce89;fill-opacity:1" /><path
     d="M55.282,13.399h-7.215c-2.149,0-3.893,1.525-3.893,3.406c0,1.881,0,3.406,0,3.406h8.188v24.864H10.255V20.212h9.601v-3.406  c0-1.881-1.743-3.406-3.892-3.406H7.335c-2.149,0-3.893,1.743-3.893,3.893v30.703c0,2.15,1.743,3.893,3.893,3.893h47.947  c2.149,0,3.893-1.742,3.893-3.893V17.292C59.175,15.143,57.432,13.399,55.282,13.399z"
     id="path3102"
     style="fill:#dfce89;fill-opacity:1" /></svg>