<?xml version="1.0" encoding="UTF-8" standalone="no"?>
<!-- Generator: Adobe Illustrator 17.1.0, SVG Export Plug-In . SVG Version: 6.00 Build 0)  -->

<svg
   xmlns:dc="http://purl.org/dc/elements/1.1/"
   xmlns:cc="http://creativecommons.org/ns#"
   xmlns:rdf="http://www.w3.org/1999/02/22-rdf-syntax-ns#"
   xmlns:svg="http://www.w3.org/2000/svg"
   xmlns="http://www.w3.org/2000/svg"
   xmlns:sodipodi="http://sodipodi.sourceforge.net/DTD/sodipodi-0.dtd"
   xmlns:inkscape="http://www.inkscape.org/namespaces/inkscape"
   version="1.1"
   id="Capa_1"
   x="0px"
   y="0px"
   viewBox="0 0 200 200"
   style="enable-background:new 0 0 200 200;"
   xml:space="preserve"
   inkscape:version="0.48.4 r9939"
   width="100%"
   height="100%"
   sodipodi:docname="settings.svg"><metadata
     id="metadata13"><rdf:RDF><cc:Work
         rdf:about=""><dc:format>image/svg+xml</dc:format><dc:type
           rdf:resource="http://purl.org/dc/dcmitype/StillImage" /></cc:Work></rdf:RDF></metadata><defs
     id="defs11" /><sodipodi:namedview
     pagecolor="#ffffff"
     bordercolor="#666666"
     borderopacity="1"
     objecttolerance="10"
     gridtolerance="10"
     guidetolerance="10"
     inkscape:pageopacity="0"
     inkscape:pageshadow="2"
     inkscape:window-width="747"
     inkscape:window-height="480"
     id="namedview9"
     showgrid="false"
     inkscape:zoom="1.18"
     inkscape:cx="100"
     inkscape:cy="100"
     inkscape:window-x="0"
     inkscape:window-y="0"
     inkscape:window-maximized="0"
     inkscape:current-layer="Capa_1" /><g
     id="g3"
     style="fill:#dfce89;fill-opacity:1"><path
       d="M189.173,109.841h-7.036c-1.904,0-4.124-1.723-4.848-3.763c-0.671-1.891-1.459-3.773-2.34-5.595   c-0.938-1.938-0.593-4.712,0.753-6.058l5.009-5.009c3.509-3.509,3.509-9.219,0-12.728l-8.13-8.13c-1.7-1.7-3.96-2.636-6.364-2.636   c-2.404,0-4.664,0.936-6.364,2.636l-5.009,5.009c-0.804,0.804-2.143,1.284-3.581,1.284c-0.9,0-1.756-0.184-2.475-0.532   c-1.823-0.882-3.708-1.671-5.603-2.345c-2.039-0.724-3.762-2.944-3.762-4.847v-7.037c0-4.962-4.037-9-9-9h-11.5   c-4.963,0-9,4.038-9,9v7.037c0,1.904-1.723,4.124-3.762,4.847c-1.893,0.672-3.777,1.459-5.598,2.339   c-0.707,0.342-1.584,0.53-2.47,0.53c-1.443,0-2.786-0.481-3.592-1.287l-5.001-4.999c-1.7-1.7-3.96-2.636-6.365-2.636   c-2.404,0-4.664,0.936-6.364,2.635l-8.138,8.133c-1.701,1.699-2.637,3.959-2.638,6.363c0,2.404,0.936,4.664,2.636,6.364   l5.009,5.009c1.347,1.347,1.693,4.123,0.755,6.062c-0.879,1.819-1.666,3.7-2.337,5.592c-0.724,2.039-2.943,3.762-4.847,3.762   h-7.036c-4.963,0-9,4.038-9,9v11.5c0,4.962,4.037,9,9,9h7.036c1.904,0,4.124,1.722,4.848,3.761c0.67,1.887,1.457,3.769,2.339,5.592   c0.937,1.938,0.59,4.714-0.758,6.062l-5.009,5.009c-3.509,3.509-3.509,9.219,0,12.728l8.141,8.142c1.7,1.7,3.96,2.636,6.364,2.636   c2.404,0,4.664-0.936,6.364-2.636l5.009-5.009c0.806-0.806,2.148-1.287,3.59-1.287c0.899,0,1.753,0.183,2.47,0.53   c1.822,0.881,3.704,1.668,5.593,2.339c2.039,0.724,3.762,2.944,3.762,4.848v7.037c0,4.962,4.037,9,9,9h11.5c4.963,0,9-4.038,9-9   v-7.037c0-1.904,1.723-4.124,3.762-4.847c1.893-0.672,3.777-1.459,5.598-2.339c0.707-0.342,1.584-0.53,2.47-0.53   c1.443,0,2.785,0.481,3.591,1.287l5.009,5.009c1.7,1.7,3.959,2.636,6.363,2.636c2.405,0,4.665-0.937,6.365-2.638l8.133-8.138   c3.507-3.51,3.507-9.22-0.001-12.729l-5.005-5.007c-1.346-1.346-1.691-4.122-0.754-6.061c0.88-1.82,1.666-3.703,2.338-5.595   c0.723-2.039,2.942-3.761,4.846-3.761h7.036c4.963,0,9-4.038,9-9v-11.5C198.173,113.878,194.135,109.841,189.173,109.841z    M151.048,124.591c0,14.543-11.832,26.375-26.375,26.375s-26.375-11.832-26.375-26.375s11.832-26.375,26.375-26.375   S151.048,110.047,151.048,124.591z"
       id="path5"
       style="fill:#dfce89;fill-opacity:1" /><path
       d="M70.142,52.099c0.17-0.479,0.739-0.883,1.007-0.883h3.524c3.308,0,6-2.691,6-6v-5.75c0-3.309-2.692-6-6-6h-3.523   c-0.268,0-0.837-0.404-1.007-0.883c-0.354-0.997-0.769-1.99-1.234-2.949c-0.217-0.449-0.102-1.126,0.086-1.314l2.505-2.505   c2.339-2.34,2.339-6.146,0-8.485l-4.065-4.065c-1.133-1.133-2.64-1.757-4.243-1.757c-1.603,0-3.11,0.625-4.243,1.758l-2.504,2.504   c-0.078,0.078-0.346,0.203-0.731,0.203c-0.219,0-0.431-0.042-0.583-0.116c-0.961-0.465-1.953-0.88-2.949-1.233   c-0.48-0.17-0.884-0.74-0.884-1.007v-3.524c0-3.309-2.692-6-6-6h-5.75c-3.308,0-6,2.691-6,6v3.524c0,0.268-0.404,0.836-0.883,1.006   c-1.001,0.355-1.994,0.771-2.951,1.234c-0.151,0.073-0.364,0.115-0.583,0.115c-0.385,0-0.652-0.124-0.73-0.202l-2.505-2.504   c-1.133-1.133-2.64-1.757-4.243-1.757c-1.603,0-3.109,0.624-4.242,1.757l-4.065,4.065c-2.339,2.34-2.339,6.147,0,8.486l2.504,2.504   c0.188,0.188,0.304,0.865,0.087,1.313c-0.465,0.96-0.88,1.953-1.234,2.95c-0.17,0.479-0.74,0.884-1.007,0.884h-3.524   c-3.308,0-6,2.691-6,6v5.75c0,3.308,2.691,6,5.999,6h3.524c0.268,0,0.837,0.404,1.007,0.883c0.354,0.998,0.769,1.99,1.234,2.949   c0.217,0.449,0.102,1.126-0.086,1.314l-2.505,2.505c-1.133,1.133-1.757,2.64-1.757,4.243c0,1.603,0.624,3.109,1.758,4.243   l4.065,4.064c1.133,1.133,2.64,1.757,4.243,1.757s3.109-0.624,4.242-1.757l2.505-2.505c0.078-0.078,0.346-0.203,0.731-0.203   c0.219,0,0.431,0.042,0.583,0.116c0.961,0.465,1.953,0.88,2.949,1.233c0.48,0.17,0.884,0.74,0.884,1.007v3.524c0,3.309,2.692,6,6,6   h5.75c3.308,0,6-2.691,6-6v-3.523c0-0.268,0.404-0.836,0.883-1.006c0.997-0.354,1.989-0.769,2.949-1.234   c0.152-0.074,0.365-0.116,0.584-0.116c0.385,0,0.652,0.125,0.731,0.203l2.505,2.505c1.133,1.133,2.64,1.757,4.243,1.757   c1.603,0,3.109-0.624,4.242-1.757l4.065-4.065c2.339-2.34,2.339-6.146,0-8.485l-2.504-2.504c-0.188-0.188-0.304-0.866-0.087-1.314   C69.374,54.087,69.789,53.095,70.142,52.099z M54.11,42.341c0,6.444-5.243,11.688-11.687,11.688   c-6.445,0-11.688-5.243-11.688-11.688s5.243-11.688,11.688-11.688C48.867,30.653,54.11,35.896,54.11,42.341z"
       id="path7"
       style="fill:#dfce89;fill-opacity:1" /></g></svg>