<?xml version="1.0" encoding="UTF-8" standalone="no"?>
<!-- Generator: Adobe Illustrator 18.0.0, SVG Export Plug-In . SVG Version: 6.00 Build 0)  -->

<svg
   xmlns:dc="http://purl.org/dc/elements/1.1/"
   xmlns:cc="http://creativecommons.org/ns#"
   xmlns:rdf="http://www.w3.org/1999/02/22-rdf-syntax-ns#"
   xmlns:svg="http://www.w3.org/2000/svg"
   xmlns="http://www.w3.org/2000/svg"
   xmlns:sodipodi="http://sodipodi.sourceforge.net/DTD/sodipodi-0.dtd"
   xmlns:inkscape="http://www.inkscape.org/namespaces/inkscape"
   version="1.1"
   id="Capa_1"
   x="0px"
   y="0px"
   viewBox="0 0 26 32"
   style="enable-background:new 0 0 26 32;"
   xml:space="preserve"
   inkscape:version="0.48.5 r10040"
   width="100%"
   height="100%"
   sodipodi:docname="trash.svg"><metadata
     id="metadata42"><rdf:RDF><cc:Work
         rdf:about=""><dc:format>image/svg+xml</dc:format><dc:type
           rdf:resource="http://purl.org/dc/dcmitype/StillImage" /></cc:Work></rdf:RDF></metadata><defs
     id="defs40" /><sodipodi:namedview
     pagecolor="#ffffff"
     bordercolor="#666666"
     borderopacity="1"
     objecttolerance="10"
     gridtolerance="10"
     guidetolerance="10"
     inkscape:pageopacity="0"
     inkscape:pageshadow="2"
     inkscape:window-width="747"
     inkscape:window-height="480"
     id="namedview38"
     showgrid="false"
     inkscape:zoom="7.375"
     inkscape:cx="13"
     inkscape:cy="16"
     inkscape:window-x="0"
     inkscape:window-y="0"
     inkscape:window-maximized="0"
     inkscape:current-layer="_x34__18_" /><g
     id="_x34__18_"><g
       id="g4"
       style="fill:#dfce89;fill-opacity:1"><path
         style="fill-rule:evenodd;clip-rule:evenodd;fill:#dfce89;fill-opacity:1"
         d="M24,4h-6V2c0-1.105-0.895-2-2-2h-6C8.895,0,8,0.895,8,2v2H2    C0.895,4,0,4.895,0,6v2c0,1.104,0.895,1.999,1.998,2h22.003C25.105,9.999,26,9.104,26,8V6C26,4.895,25.105,4,24,4z M16,4h-6V3    c0-0.552,0.448-1,1-1h4c0.552,0,1,0.448,1,1V4z M2,28c0,2.209,1.791,4,4,4h14c2.209,0,4-1.791,4-4V12H2V28z M17,15    c0-0.552,0.448-1,1-1c0.552,0,1,0.448,1,1v12c0,0.552-0.448,1-1,1c-0.552,0-1-0.448-1-1V15z M12,15c0-0.552,0.448-1,1-1    c0.552,0,1,0.448,1,1v12c0,0.552-0.448,1-1,1c-0.552,0-1-0.448-1-1V15z M7,15c0-0.552,0.448-1,1-1c0.552,0,1,0.448,1,1v12    c0,0.552-0.448,1-1,1c-0.552,0-1-0.448-1-1V15z"
         id="path6" /></g></g><g
     id="g8" /><g
     id="g10" /><g
     id="g12" /><g
     id="g14" /><g
     id="g16" /><g
     id="g18" /><g
     id="g20" /><g
     id="g22" /><g
     id="g24" /><g
     id="g26" /><g
     id="g28" /><g
     id="g30" /><g
     id="g32" /><g
     id="g34" /><g
     id="g36" /></svg>